<svg xmlns="http://www.w3.org/2000/svg" width="100" height="100" viewBox="0 0 100 100"><title>grabme</title><path d="M27.6,47a.8.8,0,0,1-.1-.4.9.9,0,0,1,.3-.6l.3-.2h.7l.3.2a.9.9,0,0,1,.3.6.8.8,0,0,1-.1.4l-.2.3-.3.2h-.3a.9.9,0,0,1-.6-.3Zm-.2,2.6a.9.9,0,0,0-1.3,0,.9.9,0,0,0-.3.6.8.8,0,0,0,.1.3l.2.3.3.2h.4l.6-.3a.9.9,0,0,0,.3-.6A.9.9,0,0,0,27.4,49.6Zm3,1.5h.4l.3-.2.2-.3a.8.8,0,0,0,.1-.3.9.9,0,0,0-.3-.6.9.9,0,0,0-1.3,0,.9.9,0,0,0,0,1.3Zm-1.2,3.3.2-.3a1,1,0,0,0,.1-.3.9.9,0,0,0-.3-.6.9.9,0,0,0-1.3,0,.9.9,0,0,0-.3.6.8.8,0,0,0,.1.3l.2.3a.9.9,0,0,0,.6.3ZM55.9,34.8l1.4.2a27.6,27.6,0,0,1,1.3-5.6,3.7,3.7,0,0,1,3.9-2.7,3.7,3.7,0,0,1,3.1,3.8c.1,1,0,2.4-.1,3.9a41.9,41.9,0,0,0,0,6.5h5.6c3.4,0,6.7,2.9,6.7,9.3s-3.4,8.9-6.8,9.3a46.6,46.6,0,0,1-5.2.2c0,3.3-.3,5.8-2.1,8.6-3.1,4.9-7.3,5.2-11.4,5.5H52l-3.7.2c-4.2,0-8.9-1-11-6.8v-.3c-.8-2.3-1.7-4.8-1.6-7.1H28.3c-3.5,0-6-3.8-6-9.3,0-3.6.9-6.4,2.7-8a4.6,4.6,0,0,1,3.5-1.3h7.4a39.5,39.5,0,0,1,2.2-11.5c1.3-3.7,3.5-4.7,5-4.3s3,2,2.5,5.6c-.1,1-.3,2-.4,3.1s-.3,2.1-.5,3.2A6,6,0,0,1,48.2,35a4.9,4.9,0,0,1,4.2,1A6.5,6.5,0,0,1,55.9,34.8ZM44.7,41.2a4.5,4.5,0,0,1,3.2,1.1,4.7,4.7,0,0,1,1,3.6,3,3,0,0,1,2.2,1.5,4,4,0,0,1,.2,2.9,2.4,2.4,0,0,0,1.8-1.9c1-4.2.5-8.1-1.5-10.6a3.1,3.1,0,0,0-3.1-1.1C46.9,37.1,45.6,38.7,44.7,41.2Zm-7.1.1h5a47.5,47.5,0,0,1,.7-7.4c.2-1,.3-2,.4-3s-.4-3.5-1.1-3.7-2.1.8-2.9,3.1A37.6,37.6,0,0,0,37.7,41.2ZM28.3,57.9h0a4,4,0,0,0,2.8-1.3,8.7,8.7,0,0,0,2.3-6.2c0-4.4-1.9-7.2-5-7.5a2.8,2.8,0,0,0-2.2.8c-1.3,1.2-2.1,3.7-2.1,6.7S25.9,57.9,28.3,57.9Zm7.6,0c1.8-6.7,8-11.1,11.2-11.9a3.3,3.3,0,0,0-.4-2.4c-.5-.5-1.5-.7-3-.6h-11c1.5,1.5,2.6,3.8,2.6,7.4a10.5,10.5,0,0,1-2.8,7.4ZM64,59.5H46.2a10.6,10.6,0,0,0,2.4,3.5.9.9,0,1,1-1.2,1.3c-.3-.3-3.2-3.1-3.2-5.7h0c0-2.7,1.9-4.6,3.4-6.1a13.9,13.9,0,0,0,1.5-1.6,3,3,0,0,0,.4-2.6c-.2-.4-.7-.6-1.5-.6h0c-2,0-9.1,4.6-10.5,11.3-.4,2.1.5,4.8,1.4,7.2v.3c2.2,6.2,8.1,5.8,12.9,5.4h.4c4.6-.3,7.6-.8,10-4.7S64,62.5,64,59.5Zm7.1-17H69.3c.4,3.5-1,7.3-3.8,10.8a19.2,19.2,0,0,1-5,4.4h4.6a48.4,48.4,0,0,0,5.7-.2c2.5-.3,5.2-3,5.2-7.5S73.6,42.5,71.1,42.5Zm-6.4,0H61.6a15.7,15.7,0,0,1-1.1,6.9,3.7,3.7,0,0,1-3.1,2.2h-.2a4.4,4.4,0,0,1-3-1.3,4.5,4.5,0,0,1-4,2l-1.4,1.5a9.5,9.5,0,0,0-2.8,4h8.5c3,0,6.7-2.2,9.4-5.5s3.7-6.6,3.4-9.6ZM59,36.1a9.9,9.9,0,0,1,2.4,4.7h2.4a45,45,0,0,1,0-6.5c.1-1.4.1-2.7.1-3.7s-.8-2-1.5-2.1a1.9,1.9,0,0,0-2,1.5A24.8,24.8,0,0,0,59,36.1Zm-3,.5a4.7,4.7,0,0,0-2.4.8c1.8,2.8,2.4,6.9,1.4,11a3.1,3.1,0,0,0,2.4,1.4,2,2,0,0,0,1.6-1.2c.8-1.6,1-4.8.8-6.8A8,8,0,0,0,57.4,37,2,2,0,0,0,56,36.6ZM23.4,24.1c-1.5-2-1.8-4.3-.7-5.7a3,3,0,0,1,3.4-1c1.6.5,3,2.6,4.7,5.1l.2.3h0c1.1,1.6,2.1,3.1,1.6,4.7s-1.6,2.1-3.7,2.9h-.3a.9.9,0,0,1-.3-1.7c1.5-.5,2.4-1.2,2.6-1.8a2.7,2.7,0,0,0-.6-2,3.9,3.9,0,0,1-2.4,1.3C26.9,26.6,25.1,26.5,23.4,24.1Zm1.5-1.1a3.1,3.1,0,0,0,2.7,1.6,2.3,2.3,0,0,0,1.6-1.2c-1.2-1.8-2.7-4-3.7-4.3H25a1,1,0,0,0-.8.4C23.7,20.1,23.7,21.5,24.9,23.1ZM36.1,15c-.4-2.7.7-4.1,1.9-4.6a2.6,2.6,0,0,1,3.1,1.2,20.8,20.8,0,0,1,1.4,3.2c.5,1.3.9,2.6,1.5,2.7a.9.9,0,0,1-.3,1.8,2.5,2.5,0,0,1-1.5-1A3.3,3.3,0,0,1,39.6,20h-.3C37.5,19.7,36.5,17.1,36.1,15Zm1.8-.3c.3,1.9,1.1,3.4,1.7,3.5s.8-.3,1.6-1.7l-.3-.9a19,19,0,0,0-1.3-3,.8.8,0,0,0-.7-.5h-.2C38.1,12.3,37.7,13.2,37.9,14.7ZM45.3,16a79.4,79.4,0,0,1-.9-10.1.9.9,0,0,1,1.8-.1c0,.6.1,1.9.2,3.5A3.1,3.1,0,0,1,48.8,9c1.5.5,2.5,2.1,2.7,4.4s-1.4,4.9-3.1,5.1h-.3A2.8,2.8,0,0,1,45.3,16Zm1.2-4.6c.1,1.4.3,2.9.5,4.3s.5,1.2,1.1,1.1,1.7-1.1,1.6-3.2S49,11,48.3,10.7A1.7,1.7,0,0,0,46.6,11.3Zm12,8.1a.9.9,0,0,0,1.1-.6,36.4,36.4,0,0,1,2-4.8,1.7,1.7,0,0,1,2.3-.8,1.2,1.2,0,0,1,.7,1.5l-2.4,4.7a.9.9,0,0,0,.4,1.2h.4a.9.9,0,0,0,.8-.5l2.4-4.6a1.7,1.7,0,0,1,2.3,0,1.2,1.2,0,0,1,0,1.8,31.2,31.2,0,0,0-2.7,4.3.9.9,0,0,0,.4,1.2h.4a.9.9,0,0,0,.8-.5,30,30,0,0,1,2.5-4,2.9,2.9,0,0,0-.2-4.2,3.5,3.5,0,0,0-3.3-.8,3.2,3.2,0,0,0-1.7-1.9,3.5,3.5,0,0,0-3.3.1v-.2a2.2,2.2,0,0,0-1.8-1,.9.9,0,0,0,0,1.8c.2,0,.3.2.3.2a.9.9,0,0,1,.1.8A38.4,38.4,0,0,0,58,18.3.9.9,0,0,0,58.6,19.4Zm12.2,1.7c.8-.9,2.4-2.6,4.1-2.8a2.5,2.5,0,0,1,2.9,1.7,2.7,2.7,0,0,1-1.4,3.2c-1.6.8-3.6.1-4.7-.4a1.6,1.6,0,0,0,.1,1.5,2.1,2.1,0,0,0,2.2.9.9.9,0,1,1,.3,1.8h-.8a3.8,3.8,0,0,1-3.3-1.8A3.6,3.6,0,0,1,70.8,21.2Zm2.2.3a3.7,3.7,0,0,0,2.7.2.9.9,0,0,0,.5-1c-.1-.4-.5-.5-1-.5A4.4,4.4,0,0,0,73,21.5ZM28.9,17.3c.6-.1,1.4-.3,2.9,2.2h0l1.9,3a.9.9,0,0,0,.8.4h.5a.9.9,0,0,0,.3-1.2l-1.8-2.9c-.8-1.4-1.1-2.4-.8-3.1a2,2,0,0,1,1.4-1,.9.9,0,1,0-.5-1.7,3.7,3.7,0,0,0-2.6,2.1,3.3,3.3,0,0,0-.2.9,3.2,3.2,0,0,0-2.1-.2.9.9,0,0,0,.4,1.8ZM25.2,70.9a2.8,2.8,0,0,0-1.4-2.7h-.1l3-2.1a.9.9,0,1,0-1.1-1.5s-4.7,3.4-9.7,6.7a.9.9,0,0,0,.5,1.6l.5-.2,3.2-2.2h0c1.4-1,2.3-1,2.8-.8a1.1,1.1,0,0,1,.5,1.1c0,1.3-1.2,3.4-4.5,5a.9.9,0,0,0,.4,1.7h.4C23.7,75.5,25.2,72.8,25.2,70.9Zm4.5,9.8c-1,1.2-1.7,2.1-1.4,2.6a.9.9,0,0,1-.2,1.3l-.5.2a.9.9,0,0,1-.7-.4,2.2,2.2,0,0,1-.4-1.5,3,3,0,0,1-2.7-1c-.9-1.1-1.1-3.1,1.1-5.4s4.6-2.4,5.9-1.5,1.5,2.1.3,3.9A17.1,17.1,0,0,1,29.7,80.7Zm-.1-2.8c.3-.5.5-1.2.1-1.5l-.7-.2a4.1,4.1,0,0,0-2.8,1.5c-1.3,1.4-1.5,2.5-1,3s1.2.6,2.2,0h.2l.8-1A15.9,15.9,0,0,0,29.6,77.8Zm8.5,1.1a3.1,3.1,0,0,0-2.6.1l-.2-.6a2.2,2.2,0,0,0-1.1-1.3.9.9,0,0,0-1.2.5.9.9,0,0,0,.5,1.2,2.4,2.4,0,0,1,0,2.4h0c-1,2.3-2.3,4.4-2.3,4.4a.9.9,0,0,0,1.5.9c.1-.1,1.3-2.2,2.4-4.6s1.6-1.7,2.3-1.5,1.1,1.2.5,2.7a42.2,42.2,0,0,1-2.2,4.6.9.9,0,0,0,.3,1.2h.4a.9.9,0,0,0,.8-.5A43.3,43.3,0,0,0,39.6,84C40.6,81.4,39.5,79.5,38.1,78.9ZM48.7,78c0,1.6-.3,9.6-1.5,11.5a3.3,3.3,0,0,1-2.8,1.6h-.2a3.5,3.5,0,0,1-2.9-2c-.6-1.3-.3-5.3,1.6-7a3.6,3.6,0,0,1,3.9-.5c.1-1.4.2-2.7.2-3.8a.9.9,0,0,1,.9-.9A.9.9,0,0,1,48.7,78Zm-2.1,5.6a3.2,3.2,0,0,0-1.5-.5,1.5,1.5,0,0,0-1,.4c-1.3,1.2-1.5,4.2-1.2,4.8a1.7,1.7,0,0,0,1.4.9,1.5,1.5,0,0,0,1.4-.8A16.5,16.5,0,0,0,46.6,83.6Zm9.2-2.9a5,5,0,0,0-2.9,2,2.6,2.6,0,0,0-1.6-1.5.9.9,0,0,0-1.1.6.9.9,0,0,0,.6,1.1,2.7,2.7,0,0,1,.7,2.6h0a24.7,24.7,0,0,0,0,4.8.9.9,0,0,0,.9.8h.1a.9.9,0,0,0,.8-1,22.4,22.4,0,0,1-.1-4.3c.2-1.2,1.2-3.1,2.8-3.4a.9.9,0,1,0-.4-1.8Zm7.8.1a8.1,8.1,0,0,1,1.6,5.8,3.1,3.1,0,0,1-2.4,2.5H62A3.1,3.1,0,0,1,59.5,88a8.5,8.5,0,0,1-1.2-6,2.8,2.8,0,0,1,2.1-2.3A2.9,2.9,0,0,1,63.5,80.9ZM62.1,82a1.2,1.2,0,0,0-.9-.5h-.3a1,1,0,0,0-.8.8,6.8,6.8,0,0,0,.9,4.7,1.2,1.2,0,0,0,1.4.5,1.3,1.3,0,0,0,1-1.1A6.3,6.3,0,0,0,62.1,82Zm9.6,1.6a4,4,0,0,1-2.9-1.9,23.5,23.5,0,0,1-3.4-6.9.9.9,0,0,0-1.7.5,24.9,24.9,0,0,0,3.7,7.5,5.7,5.7,0,0,0,4.4,2.6h0a.9.9,0,0,0,.9-.9A.9.9,0,0,0,71.6,83.5Zm4.3-4.1c-.8.5-2.2.4-3.3-1.1a22.3,22.3,0,0,1-3.3-5.8.9.9,0,0,0-1.7.6,23.6,23.6,0,0,0,3.5,6.3A4.8,4.8,0,0,0,75,81.5a3.5,3.5,0,0,0,2-.6.9.9,0,0,0-1-1.5ZM72.5,69.4a2.8,2.8,0,0,0-2.2-.2.9.9,0,1,0,.5,1.7,1,1,0,0,1,.8,0c.2.1.6.5.8,1.5a.9.9,0,0,0,.9.7h.2a.9.9,0,0,0,.6-1.1A4,4,0,0,0,72.5,69.4Zm4.3-2a.9.9,0,0,0-1.1,1c.5,2.6.6,5.1.6,5.1a.9.9,0,1,0,1.8-.1c0-.1-.1-1.8-.4-4A6.9,6.9,0,0,1,81.5,72a1.5,1.5,0,0,1,.3,1.4,1.3,1.3,0,0,1-1.1.6.9.9,0,0,0,.1,1.8h.1a3,3,0,0,0,2.5-1.7A3.2,3.2,0,0,0,83,71,9.4,9.4,0,0,0,76.8,67.4ZM16,62.1a.9.9,0,0,0,.4-1.2,24.7,24.7,0,0,1-1.6-6.7l-.2-1.9a29.1,29.1,0,0,1-.2-6.4,40.8,40.8,0,0,1,4.2-13.5.9.9,0,1,0-1.6-.9,42.8,42.8,0,0,0-4.4,14.2,30.4,30.4,0,0,0,.2,6.8l.2,1.9a26.7,26.7,0,0,0,1.8,7.4.9.9,0,0,0,.8.5ZM86.7,42.5l-.6-2.2a40.9,40.9,0,0,0-3.3-9.2.9.9,0,0,0-1.6.9,39.5,39.5,0,0,1,3.2,8.8L85,43a27.9,27.9,0,0,1,.9,9,38.6,38.6,0,0,1-2,9.1.9.9,0,0,0,.6,1.1h.3a.9.9,0,0,0,.9-.6,40.3,40.3,0,0,0,2.1-9.6A29.8,29.8,0,0,0,86.7,42.5Z"/></svg>