<svg xmlns="http://www.w3.org/2000/svg" width="100" height="100" viewBox="0 0 100 100"><title>grabme</title><path d="M27.82 47.293a.898.898 0 0 1-.26-.64.79.79 0 0 1 .07-.34.888.888 0 0 1 1.47-.3.96.96 0 0 1 .26.64.8.8 0 0 1-.07.34 1.024 1.024 0 0 1-.19.3.916.916 0 0 1-.64.26.845.845 0 0 1-.35-.07.91.91 0 0 1-.29-.19zm-.18 2.6a.834.834 0 0 0-.2-.29.89.89 0 0 0-.98-.2.835.835 0 0 0-.29.2.893.893 0 0 0-.26.63 1.057 1.057 0 0 0 .01.18 1.085 1.085 0 0 0 .06.17.81.81 0 0 0 .19.29.9.9 0 0 0 .64.26.8.8 0 0 0 .34-.07.815.815 0 0 0 .29-.19.834.834 0 0 0 .2-.29 1.087 1.087 0 0 0 .05-.17 1.124 1.124 0 0 0 .02-.18.79.79 0 0 0-.07-.34zm1.94.69a.974.974 0 0 0 .19.29.953.953 0 0 0 .3.19.869.869 0 0 0 .68 0 .854.854 0 0 0 .3-.19.81.81 0 0 0 .19-.29 1.087 1.087 0 0 0 .05-.17.551.551 0 0 0 .02-.18.893.893 0 0 0-.26-.63.93.93 0 0 0-1.28 0 .81.81 0 0 0-.19.29.797.797 0 0 0-.07.34 1.124 1.124 0 0 0 .02.18 1.14 1.14 0 0 0 .05.17zm-.64 4.05a.812.812 0 0 0 .29-.19.834.834 0 0 0 .2-.29.882.882 0 0 0 0-.69.843.843 0 0 0-.2-.29.995.995 0 0 0-.29-.2.908.908 0 0 0-.69 0 .988.988 0 0 0-.29.2 1.013 1.013 0 0 0-.2.29 1.033 1.033 0 0 0-.06.35 1.018 1.018 0 0 0 .06.34 1 1 0 0 0 .2.29.808.808 0 0 0 .29.19.83.83 0 0 0 .35.07.818.818 0 0 0 .34-.07zm26.972-19.824a4.352 4.352 0 0 1 1.398.165 27.651 27.651 0 0 1 1.332-5.629 3.665 3.665 0 0 1 3.935-2.709 3.717 3.717 0 0 1 3.062 3.786c.059 1.046-.01 2.425-.084 3.885a41.918 41.918 0 0 0 .02 6.462c.642.002 1.598.004 2.648-.006l.627-.008c.557-.01 1.219-.02 2.29-.02 3.352 0 6.734 2.865 6.734 9.266 0 5.574-3.426 8.883-6.81 9.271a46.853 46.853 0 0 1-5.248.246c-.032 3.26-.298 5.75-2.06 8.582-3.055 4.906-7.273 5.225-11.352 5.532l-.406.032c-1.117.085-2.368.18-3.663.18-4.233 0-8.943-1.022-11.018-6.77l-.12-.333c-.818-2.259-1.727-4.777-1.603-7.097-2.447-.064-6.016.006-7.239.035l-.04.002h-.043c-3.526-.03-5.99-3.842-5.99-9.271 0-3.578.948-6.42 2.668-8a4.613 4.613 0 0 1 3.52-1.266v-.005s4.186.053 7.39.085a39.443 39.443 0 0 1 2.198-11.52c1.315-3.729 3.517-4.65 5.01-4.303 1.43.332 2.95 2.007 2.521 5.633a80.2 80.2 0 0 1-.439 3.057 85.527 85.527 0 0 0-.454 3.234 6.014 6.014 0 0 1 3.455-2.321 4.957 4.957 0 0 1 4.22 1.042 6.503 6.503 0 0 1 3.541-1.237zm-11.174 6.364a4.539 4.539 0 0 1 3.182 1.137 4.671 4.671 0 0 1 .975 3.624 2.966 2.966 0 0 1 2.18 1.513 4.024 4.024 0 0 1 .188 2.937 2.371 2.371 0 0 0 1.845-1.92c1.045-4.159.493-8.131-1.478-10.627a3.108 3.108 0 0 0-3.094-1.075c-1.631.357-2.982 1.943-3.798 4.41zm-7.08.061c1.427 0 3.727-.011 4.998-.03a47.541 47.541 0 0 1 .716-7.39c.157-1.006.312-1.993.43-2.991.257-2.175-.38-3.492-1.142-3.669-.82-.185-2.086.828-2.905 3.15a37.602 37.602 0 0 0-2.096 10.93zm-9.37 16.647h.005l.037-.001a4.022 4.022 0 0 0 2.799-1.293 8.69 8.69 0 0 0 2.263-6.183c0-4.411-1.873-7.203-5.01-7.468a3.06 3.06 0 0 0-.249-.01 2.843 2.843 0 0 0-1.965.81c-1.325 1.217-2.085 3.65-2.085 6.674 0 4.308 1.768 7.45 4.204 7.47zm7.629-.027c1.766-6.712 7.987-11.148 11.17-11.891a3.28 3.28 0 0 0-.45-2.39c-.473-.482-1.5-.684-3.04-.594-.751.043-5.68.06-6.874.054a1861.35 1861.35 0 0 1-4.107-.043c1.505 1.455 2.576 3.836 2.576 7.414a10.508 10.508 0 0 1-2.756 7.417 99.04 99.04 0 0 1 3.48.033zm28.1 1.656l-1.044-.005c-2.522-.017-5.661-.039-8.276.032h-.027c-2.787.075-4.935.111-6.784.111-.59 0-1.143-.005-1.682-.012a10.609 10.609 0 0 0 2.42 3.463.9.9 0 0 1-1.231 1.313c-.326-.306-3.181-3.06-3.181-5.695l.001-.014-.001-.007.003-.014c.017-2.65 1.894-4.571 3.407-6.116a13.86 13.86 0 0 0 1.461-1.64 3.024 3.024 0 0 0 .4-2.64c-.227-.429-.745-.647-1.54-.647-2.024 0-9.059 4.57-10.459 11.325-.433 2.091.543 4.787 1.404 7.165l.121.335c2.244 6.216 8.125 5.767 12.85 5.405l.409-.031c4.595-.347 7.56-.836 9.958-4.689 1.527-2.453 1.76-4.615 1.79-7.639zm7.123-16.974c-.827 0-1.404.006-1.88.013.355 3.465-.973 7.33-3.77 10.778a19.228 19.228 0 0 1-4.96 4.364l2.455.014 2.124.011a48.025 48.025 0 0 0 5.75-.233c2.528-.289 5.215-3.01 5.215-7.482 0-5.158-2.478-7.465-4.934-7.465zm-6.38.028l-3.205.008a15.658 15.658 0 0 1-1.066 6.856 3.695 3.695 0 0 1-3.074 2.212 2.938 2.938 0 0 1-.208.007 4.432 4.432 0 0 1-2.963-1.283 4.53 4.53 0 0 1-3.956 1.953 19.617 19.617 0 0 1-1.379 1.509 9.53 9.53 0 0 0-2.778 4.01c2.234.03 4.801 0 8.518-.098h.021l.003-.001c2.99 0 6.688-2.176 9.42-5.544 2.541-3.134 3.726-6.594 3.355-9.623-1.51.008-2.688-.005-2.689-.006zm-5.748-6.48a9.896 9.896 0 0 1 2.352 4.688l2.401-.006a45.06 45.06 0 0 1-.008-6.55c.071-1.41.138-2.742.085-3.694-.08-1.41-.83-2.01-1.508-2.102a1.894 1.894 0 0 0-1.988 1.503 24.848 24.848 0 0 0-1.334 6.161zm-3.042.524a4.744 4.744 0 0 0-2.45.822c1.847 2.831 2.374 6.854 1.422 11.042a3.041 3.041 0 0 0 2.366 1.371 1.997 1.997 0 0 0 1.577-1.231c.793-1.557 1.04-4.763.814-6.84a8.031 8.031 0 0 0-2.25-4.733 1.998 1.998 0 0 0-1.48-.43zm-32.53-12.46c-1.474-2.043-1.763-4.277-.736-5.692a2.96 2.96 0 0 1 3.416-.965c1.565.5 3.003 2.636 4.67 5.107l.232.345.013.019c1.05 1.555 2.085 3.092 1.565 4.714-.392 1.22-1.552 2.15-3.653 2.931a.9.9 0 1 1-.627-1.687c1.478-.55 2.366-1.17 2.566-1.793a2.712 2.712 0 0 0-.575-1.979 3.943 3.943 0 0 1-2.428 1.33c-.94.126-2.765-.006-4.444-2.33zm1.46-1.054a3.093 3.093 0 0 0 2.74 1.601 2.27 2.27 0 0 0 1.613-1.154c-1.22-1.81-2.724-4.029-3.682-4.335a1.89 1.89 0 0 0-.569-.097.988.988 0 0 0-.841.404c-.461.635-.411 1.989.738 3.581zm11.242-8.087c-.443-2.721.688-4.144 1.895-4.569a2.571 2.571 0 0 1 3.106 1.24 20.687 20.687 0 0 1 1.386 3.245c.457 1.276.93 2.596 1.488 2.703a.9.9 0 0 1-.34 1.767 2.475 2.475 0 0 1-1.54-1.03 3.284 3.284 0 0 1-2.487 1.64 2.135 2.135 0 0 1-.32-.024c-1.8-.273-2.843-2.848-3.188-4.972zm1.776-.289c.309 1.894 1.142 3.4 1.682 3.482.217.053.81-.3 1.58-1.729-.118-.305-.231-.622-.345-.94a18.994 18.994 0 0 0-1.258-2.966.833.833 0 0 0-.71-.469.7.7 0 0 0-.233.04c-.535.189-.964 1.06-.716 2.582zm7.423 1.234a79.468 79.468 0 0 1-.875-10.133.9.9 0 0 1 1.8-.053c.019.65.056 1.905.155 3.473a3.124 3.124 0 0 1 2.42-.232c1.488.492 2.462 2.1 2.674 4.413.277 3.034-1.4 4.904-3.117 5.124a2.583 2.583 0 0 1-.327.02 2.81 2.81 0 0 1-2.73-2.612zm1.238-4.639a59.84 59.84 0 0 0 .539 4.346c.126.767.51 1.16 1.051 1.1.756-.097 1.738-1.146 1.553-3.175-.14-1.543-.681-2.616-1.446-2.868a1.754 1.754 0 0 0-1.697.597zm11.971 8.125a.903.903 0 0 0 1.14-.567 36.395 36.395 0 0 1 1.997-4.835 1.718 1.718 0 0 1 2.342-.846 1.166 1.166 0 0 1 .7 1.486l-2.44 4.708a.9.9 0 0 0 .386 1.213.887.887 0 0 0 .413.102.901.901 0 0 0 .8-.486l2.388-4.608a1.679 1.679 0 0 1 2.275-.034 1.168 1.168 0 0 1 .024 1.766 31.09 31.09 0 0 0-2.673 4.344.9.9 0 1 0 1.603.82 29.85 29.85 0 0 1 2.46-4.022 2.939 2.939 0 0 0-.207-4.244 3.516 3.516 0 0 0-3.269-.777 3.159 3.159 0 0 0-1.663-1.882 3.475 3.475 0 0 0-3.26.092c-.034-.062-.055-.13-.094-.189a2.178 2.178 0 0 0-1.817-1.036.9.9 0 0 0 0 1.8c.152 0 .28.176.315.23a.862.862 0 0 1 .11.75 38.433 38.433 0 0 0-2.097 5.075.9.9 0 0 0 .567 1.14zm12.25 1.728c.79-.943 2.378-2.558 4.145-2.779a2.548 2.548 0 0 1 2.912 1.735 2.681 2.681 0 0 1-1.362 3.17c-1.56.802-3.586.119-4.688-.38a1.605 1.605 0 0 0 .069 1.5 2.065 2.065 0 0 0 2.222.889.9.9 0 0 1 .338 1.767 4.39 4.39 0 0 1-.821.08 3.754 3.754 0 0 1-3.291-1.824 3.555 3.555 0 0 1 .476-4.158zm2.197.287a3.714 3.714 0 0 0 2.677.237.875.875 0 0 0 .462-1.04c-.114-.37-.462-.539-.968-.475a4.426 4.426 0 0 0-2.17 1.278zm-44.106-4.2c.64-.132 1.436-.292 2.871 2.249l.006.01c.672 1.158 1.845 2.947 1.895 3.022a.9.9 0 1 0 1.504-.986c-.011-.019-1.194-1.825-1.843-2.94-.785-1.353-1.051-2.436-.769-3.134a1.988 1.988 0 0 1 1.429-1.034.9.9 0 0 0-.488-1.732 3.658 3.658 0 0 0-2.609 2.09 3.279 3.279 0 0 0-.212.887 3.238 3.238 0 0 0-2.143-.196.9.9 0 1 0 .36 1.764zm-3.676 53.641a2.84 2.84 0 0 0-1.442-2.68c-.04-.02-.092-.04-.137-.061a343.598 343.598 0 0 0 3-2.135.9.9 0 1 0-1.054-1.459c-.047.033-4.724 3.41-9.683 6.741a.9.9 0 1 0 1.004 1.495c1.109-.745 2.2-1.49 3.233-2.202l.002-.002c1.357-.952 2.333-1.029 2.792-.786a1.135 1.135 0 0 1 .486 1.06c-.021 1.308-1.21 3.406-4.487 5.012a.9.9 0 1 0 .792 1.617c4.004-1.962 5.464-4.696 5.494-6.6zm4.468 9.776c-1.014 1.228-1.705 2.133-1.368 2.592a.9.9 0 1 1-1.45 1.067 2.163 2.163 0 0 1-.445-1.541 2.974 2.974 0 0 1-2.666-1.05c-.853-1.066-1.066-3.125 1.14-5.419 2.267-2.357 4.63-2.407 5.864-1.454.858.662 1.464 2.082.349 3.906a17.156 17.156 0 0 1-1.424 1.899zm-.111-2.838c.323-.529.515-1.211.086-1.542a1.171 1.171 0 0 0-.717-.202 4.103 4.103 0 0 0-2.75 1.479c-1.308 1.36-1.46 2.51-1.031 3.046.341.428 1.167.607 2.172 0a.894.894 0 0 1 .152-.073c.258-.347.538-.686.81-1.016a15.905 15.905 0 0 0 1.278-1.692zm8.544 1.1a3.097 3.097 0 0 0-2.6.148 3.477 3.477 0 0 0-.156-.6 2.165 2.165 0 0 0-1.146-1.255.905.905 0 0 0-1.178.494.894.894 0 0 0 .49 1.17 2.353 2.353 0 0 1-.037 2.412c-1.05 2.266-2.292 4.372-2.304 4.393a.9.9 0 1 0 1.549.916 57.41 57.41 0 0 0 2.39-4.556c.647-1.395 1.644-1.734 2.294-1.463.675.285 1.102 1.245.532 2.748a42.219 42.219 0 0 1-2.213 4.584.9.9 0 0 0 .343 1.225.898.898 0 0 0 1.226-.343 43.3 43.3 0 0 0 2.326-4.828c.991-2.611-.091-4.445-1.516-5.045zm10.593-.925c-.043 1.583-.319 9.58-1.545 11.538a3.255 3.255 0 0 1-2.804 1.6c-.073 0-.147-.002-.221-.007a3.48 3.48 0 0 1-2.916-1.97c-.61-1.322-.329-5.256 1.643-6.955a3.556 3.556 0 0 1 3.855-.477c.093-1.322.157-2.644.188-3.777a.914.914 0 0 1 .924-.875.9.9 0 0 1 .876.923zm-2.147 5.64a3.16 3.16 0 0 0-1.497-.462 1.46 1.46 0 0 0-1.024.39c-1.345 1.16-1.493 4.17-1.185 4.839a1.658 1.658 0 0 0 1.396.927 1.482 1.482 0 0 0 1.387-.752 16.794 16.794 0 0 0 .923-4.942zm9.205-2.915a5 5 0 0 0-2.915 1.984 2.637 2.637 0 0 0-1.599-1.452.876.876 0 0 0-1.059.644.921.921 0 0 0 .632 1.104 2.75 2.75 0 0 1 .747 2.617 24.699 24.699 0 0 0 .05 4.795.9.9 0 0 0 .895.81c.03 0 .06-.002.091-.005a.9.9 0 0 0 .805-.986 22.411 22.411 0 0 1-.063-4.33c.202-1.211 1.205-3.074 2.8-3.423a.9.9 0 1 0-.384-1.758zm7.752.149a8.083 8.083 0 0 1 1.577 5.829 3.12 3.12 0 0 1-5.636 1.3 8.526 8.526 0 0 1-1.182-5.971 2.825 2.825 0 0 1 2.136-2.315 2.94 2.94 0 0 1 3.105 1.157zm-1.445 1.072a1.136 1.136 0 0 0-1.221-.484 1.04 1.04 0 0 0-.793.831 6.78 6.78 0 0 0 .865 4.664 1.244 1.244 0 0 0 1.367.538 1.332 1.332 0 0 0 1.023-1.054 6.312 6.312 0 0 0-1.241-4.495zm9.577 1.562a3.99 3.99 0 0 1-2.91-1.859 23.5 23.5 0 0 1-3.429-6.921.9.9 0 0 0-1.742.452 24.86 24.86 0 0 0 3.71 7.52 5.745 5.745 0 0 0 4.364 2.61h.003a.895.895 0 0 0 .89-.894.906.906 0 0 0-.886-.908zm4.27-4.071c-.79.53-2.172.405-3.34-1.12a22.273 22.273 0 0 1-3.253-5.79.9.9 0 0 0-1.71.563 23.622 23.622 0 0 0 3.534 6.32 4.842 4.842 0 0 0 3.801 2.103 3.54 3.54 0 0 0 1.97-.58.9.9 0 0 0-1.002-1.496zm-3.374-10.056a2.745 2.745 0 0 0-2.171-.202.9.9 0 1 0 .48 1.735.96.96 0 0 1 .794.028c.227.13.552.497.82 1.508a.9.9 0 0 0 1.74-.46 3.964 3.964 0 0 0-1.663-2.609zm4.303-2.03a.9.9 0 0 0-1.07 1.036c.463 2.623.63 5.124.632 5.15a.9.9 0 1 0 1.796-.118 55.118 55.118 0 0 0-.435-3.973 6.873 6.873 0 0 1 3.736 2.576 1.46 1.46 0 0 1 .317 1.402 1.264 1.264 0 0 1-1.067.636.9.9 0 0 0 .093 1.796c.03 0 .063-.002.094-.005a3.03 3.03 0 0 0 2.519-1.683 3.193 3.193 0 0 0-.484-3.181 9.371 9.371 0 0 0-6.131-3.637zm-60.83-5.21a.9.9 0 0 0 .4-1.209 24.676 24.676 0 0 1-1.567-6.747c-.064-.679-.131-1.314-.195-1.92a29.09 29.09 0 0 1-.22-6.382A40.808 40.808 0 0 1 18.6 32.384a.9.9 0 1 0-1.58-.859 42.814 42.814 0 0 0-4.372 14.178 30.404 30.404 0 0 0 .22 6.758c.063.6.13 1.229.193 1.9a26.658 26.658 0 0 0 1.751 7.385.9.9 0 0 0 1.208.401zM86.697 42.49c-.189-.627-.388-1.357-.605-2.149a40.889 40.889 0 0 0-3.348-9.248.9.9 0 0 0-1.557.903 39.586 39.586 0 0 1 3.169 8.82c.221.809.425 1.554.618 2.193a27.903 27.903 0 0 1 .916 9.023 38.624 38.624 0 0 1-2.012 9.144.9.9 0 1 0 1.717.541 40.239 40.239 0 0 0 2.093-9.595 29.761 29.761 0 0 0-.99-9.632z"/></svg>