<svg xmlns="http://www.w3.org/2000/svg" width="100" height="100" viewBox="0 0 100 100"><title>grabme</title><path d="M27.81982,47.29263a.89845.89845,0,0,1-.25977-.63965.78985.78985,0,0,1,.06982-.33984.88785.88785,0,0,1,1.46973-.2998.96077.96077,0,0,1,.26025.63965.8001.8001,0,0,1-.06982.33984,1.02367,1.02367,0,0,1-.19043.2998.91617.91617,0,0,1-.63965.25977.84455.84455,0,0,1-.3501-.06934A.91086.91086,0,0,1,27.81982,47.29263Zm-.18018,2.60059a.83368.83368,0,0,0-.19971-.29.88973.88973,0,0,0-.98-.2002.83493.83493,0,0,0-.29.2002.89307.89307,0,0,0-.26025.62988,1.05665,1.05665,0,0,0,.01025.17969,1.08517,1.08517,0,0,0,.06006.16992.80939.80939,0,0,0,.18994.29.89958.89958,0,0,0,.64014.25977.79965.79965,0,0,0,.33984-.06934.81483.81483,0,0,0,.29-.19043.83368.83368,0,0,0,.19971-.29,1.08746,1.08746,0,0,0,.05029-.16992,1.12446,1.12446,0,0,0,.02-.17969A.79029.79029,0,0,0,27.63965,49.89322Zm1.93994.68945a.97407.97407,0,0,0,.19043.29.95252.95252,0,0,0,.2998.19043.86872.86872,0,0,0,.68018,0,.85419.85419,0,0,0,.2998-.19043.80939.80939,0,0,0,.18994-.29,1.08745,1.08745,0,0,0,.05029-.16992.55133.55133,0,0,0,.02-.17969.89307.89307,0,0,0-.26025-.62988.93068.93068,0,0,0-1.27979,0,.81056.81056,0,0,0-.19043.29.79709.79709,0,0,0-.06982.33984,1.12446,1.12446,0,0,0,.02.17969A1.14046,1.14046,0,0,0,29.57959,50.58267Zm-.63965,4.0498a.81246.81246,0,0,0,.29-.18945.83368.83368,0,0,0,.19971-.29.88242.88242,0,0,0,0-.69043.84279.84279,0,0,0-.19971-.29.99451.99451,0,0,0-.29-.19922.90761.90761,0,0,0-.68994,0,.98806.98806,0,0,0-.29.19922,1.01344,1.01344,0,0,0-.2002.29,1.03344,1.03344,0,0,0-.06006.35059,1.01833,1.01833,0,0,0,.06006.33984,1.00011,1.00011,0,0,0,.2002.29.80822.80822,0,0,0,.29.18945.82946.82946,0,0,0,.34961.07031A.81842.81842,0,0,0,28.93994,54.63248ZM55.91211,34.80924a4.35218,4.35218,0,0,1,1.39764.16479,27.65118,27.65118,0,0,1,1.33185-5.62866,3.66509,3.66509,0,0,1,3.93555-2.709,3.71681,3.71681,0,0,1,3.06152,3.78516c.05908,1.04688-.01025,2.42578-.0835,3.88574a41.918,41.918,0,0,0,.02,6.4613c.64233.00287,1.59741.00415,2.64752-.00525l.627-.00879c.55713-.00879,1.21924-.01953,2.29053-.01953,3.35205,0,6.73389,2.86523,6.73389,9.26563,0,5.57422-3.42578,8.88379-6.81006,9.27148a46.85321,46.85321,0,0,1-5.24786.24585c-.03253,3.26007-.2981,5.75061-2.06073,8.58228-3.05469,4.90625-7.27246,5.22461-11.35107,5.53223l-.40625.03125c-1.11719.085-2.36816.18066-3.66357.18066-4.23291,0-8.94287-1.02246-11.01758-6.76953l-.12061-.334c-.81732-2.25842-1.72626-4.77722-1.60278-7.097-2.44623-.06342-6.01562.00616-7.23822.03522-.01361.00012-.02722.00226-.04083.00226h-.043c-3.52588-.03027-5.98877-3.84277-5.98877-9.27148,0-3.57812.94727-6.41895,2.66748-8a4.613,4.613,0,0,1,3.519-1.26544l.00006-.00507c.00043,0,4.18658.05292,7.38983.08441a39.44323,39.44323,0,0,1,2.19855-11.52c1.31543-3.72852,3.51758-4.65039,5.01025-4.30273,1.43066.332,2.94971,2.00684,2.52148,5.63281-.12012,1.02051-.27783,2.03027-.439,3.05762-.164,1.04877-.32385,2.12183-.45471,3.23328a6.01374,6.01374,0,0,1,3.4552-2.32117,4.95722,4.95722,0,0,1,4.21979,1.04205A6.503,6.503,0,0,1,55.91211,34.80924Zm-11.174,6.36371a4.53881,4.53881,0,0,1,3.18182,1.13727,4.67106,4.67106,0,0,1,.975,3.62329,2.96624,2.96624,0,0,1,2.18079,1.51343,4.02362,4.02362,0,0,1,.18768,2.93732,2.37129,2.37129,0,0,0,1.845-1.92072c1.04443-4.1582.49219-8.13086-1.47852-10.627a3.1082,3.1082,0,0,0-3.09424-1.07422C46.905,37.11923,45.55365,38.70493,44.7381,41.17294Zm-7.07947.06146c1.42651-.00006,3.72607-.01141,4.997-.03107a47.54125,47.54125,0,0,1,.71643-7.3902c.15723-1.00488.312-1.99219.42969-2.99023.25684-2.1748-.37988-3.49219-1.1416-3.66895-.82031-.18457-2.08643.82813-2.90527,3.14941A37.6023,37.6023,0,0,0,37.65863,41.23441ZM28.28711,57.88053l.0058.00018.03674-.00079a4.02188,4.02188,0,0,0,2.79926-1.29333A8.68931,8.68931,0,0,0,33.39209,50.404c0-4.41113-1.873-7.20312-5.00977-7.46777-.0835-.00684-.167-.01074-.249-.01074a2.8427,2.8427,0,0,0-1.96484.80957c-1.32568,1.21777-2.08594,3.65137-2.08594,6.6748C24.08252,54.71842,25.85059,57.86,28.28711,57.88053Zm7.62958-.02686c1.76678-6.71173,7.98755-11.14746,11.171-11.89111a3.28062,3.28062,0,0,0-.45044-2.38965c-.47363-.48145-1.5-.68359-3.041-.59375-.75049.043-5.67969.05957-6.87354.05371-1.2381-.01117-2.7312-.02728-4.10718-.04291,1.50507,1.45532,2.57642,3.83618,2.57642,7.414a10.50835,10.50835,0,0,1-2.75641,7.41736C33.64313,57.81534,34.88947,57.82163,35.91669,57.85367ZM64.017,59.51029l-1.04431-.00574c-2.52148-.0166-5.66113-.03809-8.27588.03223l-.0174.00043-.00653.00055-.00159-.00031c-2.787.07471-4.93536.11066-6.78455.11066-.58936,0-1.14264-.00482-1.68213-.01208A10.6088,10.6088,0,0,0,48.625,63.09928a.89988.89988,0,0,1-1.23145,1.3125c-.32568-.30566-3.18066-3.05957-3.18066-5.69434l.00128-.0144-.00128-.00708.00305-.01367c.01709-2.65015,1.89447-4.57153,3.4071-6.11621a13.86082,13.86082,0,0,0,1.46143-1.64062,3.02441,3.02441,0,0,0,.39893-2.63965c-.22607-.42871-.74414-.64648-1.53857-.64648h-.001c-2.02344,0-9.05859,4.57031-10.4585,11.32422-.43311,2.0918.54248,4.78711,1.40332,7.165l.12158.335c2.24414,6.2168,8.12451,5.76758,12.8501,5.40527l.4082-.03125c4.5957-.34668,7.55957-.83594,9.9585-4.68848C63.75391,64.69638,63.98724,62.53427,64.017,59.51029ZM71.14014,42.5358c-.82721,0-1.40393.006-1.88074.01282.35577,3.46515-.97229,7.32977-3.76868,10.7782A19.22784,19.22784,0,0,1,60.53,57.69132c.85333.00323,1.68427.00836,2.45483.01343l2.12451.01172a48.0253,48.0253,0,0,0,5.74951-.2334c2.52832-.28906,5.21533-3.01074,5.21533-7.48242C76.07422,44.84342,73.59619,42.5358,71.14014,42.5358Zm-6.38086.02832-3.20428.00824a15.65784,15.65784,0,0,1-1.06622,6.856,3.69531,3.69531,0,0,1-3.07422,2.21191c-.06885.00488-.13818.00684-.20752.00684a4.432,4.432,0,0,1-2.96344-1.28326A4.53,4.53,0,0,1,50.28778,52.317a19.61678,19.61678,0,0,1-1.3786,1.50879,9.52946,9.52946,0,0,0-2.7785,4.01013c2.23468.03076,4.80164.00037,8.51825-.098l.02148-.00049.00244-.00049c2.99072,0,6.68848-2.17578,9.41992-5.54395,2.54138-3.13428,3.72668-6.59369,3.35565-9.62311C65.93866,42.57773,64.7597,42.565,64.75928,42.56412Zm-5.747-6.4798a9.89646,9.89646,0,0,1,2.35193,4.68774l2.40112-.00616a45.0596,45.0596,0,0,1-.008-6.54944c.0708-1.41016.1377-2.74219.08447-3.69434-.0791-1.40918-.83057-2.00977-1.5083-2.10254a1.89432,1.89432,0,0,0-1.98779,1.50391A24.84814,24.84814,0,0,0,59.01227,36.08432Zm-3.04254.52374a4.74422,4.74422,0,0,0-2.44885.822c1.84564,2.83142,2.37341,6.85382,1.42078,11.04156a3.04143,3.04143,0,0,0,2.36646,1.37177A1.99731,1.99731,0,0,0,58.88477,48.612c.79346-1.55664,1.04-4.7627.814-6.83984a8.03133,8.03133,0,0,0-2.25049-4.7334A1.99808,1.99808,0,0,0,55.96973,36.60806ZM23.43945,24.14713c-1.47363-2.042-1.7627-4.27637-.73584-5.69141a2.96057,2.96057,0,0,1,3.4165-.96484c1.56445.501,3.00293,2.63574,4.66895,5.10742l.23291.34473.0127.01855c1.05078,1.55566,2.08545,3.09277,1.56494,4.71484-.39111,1.21875-1.55176,2.15039-3.65234,2.93066a.9001.9001,0,1,1-.627-1.6875c1.478-.54883,2.36523-1.16895,2.56543-1.793a2.712,2.712,0,0,0-.5752-1.97852,3.94311,3.94311,0,0,1-2.42773,1.33008C26.94385,26.60416,25.11768,26.47232,23.43945,24.14713Zm1.46-1.05273A3.09309,3.09309,0,0,0,27.63965,24.695a2.27026,2.27026,0,0,0,1.61377-1.1543c-1.22021-1.81055-2.72412-4.02832-3.68213-4.335a1.88992,1.88992,0,0,0-.56885-.09668.98791.98791,0,0,0-.8418.4043C23.69971,20.1481,23.74951,21.50162,24.89941,23.09439Zm11.24268-8.08691c-.44336-2.72168.688-4.14453,1.895-4.56934a2.57149,2.57149,0,0,1,3.106,1.24023,20.68669,20.68669,0,0,1,1.38574,3.24512c.45752,1.27539.93066,2.5957,1.48779,2.70215a.89988.89988,0,0,1-.33887,1.76758,2.47523,2.47523,0,0,1-1.541-1.03027,3.284,3.284,0,0,1-2.48682,1.64063,2.13463,2.13463,0,0,1-.3208-.02441C37.5293,19.70572,36.4873,17.13053,36.14209,15.00748Zm1.77637-.28906c.30811,1.89355,1.1416,3.39941,1.68115,3.48145.21729.05273.80957-.30078,1.57959-1.72852-.11719-.30566-.23047-.62207-.34473-.94043a18.99387,18.99387,0,0,0-1.25781-2.96582.83329.83329,0,0,0-.709-.46875.70059.70059,0,0,0-.2334.04C38.09912,12.32486,37.67041,13.196,37.91846,14.71842Zm7.42285,1.2334a79.46844,79.46844,0,0,1-.875-10.13281.8998.8998,0,0,1,1.79883-.05273c.01953.64941.05664,1.9043.15625,3.47266a3.12436,3.12436,0,0,1,2.41992-.23242c1.4873.49219,2.46191,2.10059,2.67334,4.41309.27686,3.03418-1.39941,4.9043-3.11719,5.124a2.58282,2.58282,0,0,1-.32617.02051A2.80927,2.80927,0,0,1,45.34131,15.95181Zm1.23779-4.63867c.12354,1.37891.2959,2.874.53857,4.3457.126.76758.51025,1.16016,1.05127,1.09961.75635-.09668,1.73828-1.14551,1.55273-3.1748-.14062-1.543-.68115-2.61523-1.44531-2.86816A1.75361,1.75361,0,0,0,46.5791,11.31314Zm11.97119,8.125a.90335.90335,0,0,0,1.13965-.56738,36.39537,36.39537,0,0,1,1.99658-4.835,1.71843,1.71843,0,0,1,2.34229-.8457,1.16581,1.16581,0,0,1,.70062,1.4856l-2.43988,4.70874a.89978.89978,0,0,0,.38525,1.21289.88732.88732,0,0,0,.41309.10156.90139.90139,0,0,0,.80029-.48633l2.38733-4.60736a1.67879,1.67879,0,0,1,2.27527-.03424,1.16772,1.16772,0,0,1,.02393,1.76563,31.09032,31.09032,0,0,0-2.67236,4.34473.90015.90015,0,1,0,1.60254.82031,29.85016,29.85016,0,0,1,2.46094-4.02246,2.939,2.939,0,0,0-.208-4.24414,3.51578,3.51578,0,0,0-3.26855-.77734,3.15874,3.15874,0,0,0-1.66309-1.88184,3.47476,3.47476,0,0,0-3.26031.0918c-.03424-.06183-.05493-.129-.09418-.18848A2.17849,2.17849,0,0,0,59.65527,10.443a.90039.90039,0,0,0,0,1.80078c.15186,0,.2793.1748.31445.22852a.86167.86167,0,0,1,.1095.7511,38.43284,38.43284,0,0,0-2.09631,5.07507A.90056.90056,0,0,0,58.55029,19.43814Zm12.24854,1.72754c.78955-.94238,2.37793-2.55762,4.14551-2.77832a2.54777,2.54777,0,0,1,2.91113,1.73438,2.68111,2.68111,0,0,1-1.36133,3.16992c-1.56055.80273-3.58643.11914-4.688-.37988a1.60514,1.60514,0,0,0,.06885,1.501,2.06491,2.06491,0,0,0,2.22168.8877.89979.89979,0,0,1,.33789,1.76758,4.38965,4.38965,0,0,1-.8208.0791,3.75448,3.75448,0,0,1-3.291-1.82324A3.55479,3.55479,0,0,1,70.79883,21.16568Zm2.19727.28711a3.71378,3.71378,0,0,0,2.67676.2373.87463.87463,0,0,0,.4624-1.04c-.11426-.37012-.4624-.53906-.96875-.47559A4.426,4.426,0,0,0,72.99609,21.45279Zm-44.106-4.2002c.64063-.13184,1.43555-.292,2.87109,2.249l.00037.00049.005.00928c.67285,1.1582,1.84521,2.94727,1.895,3.02246a.89966.89966,0,1,0,1.50488-.98633c-.01172-.01855-1.19482-1.82422-1.84326-2.94043-.78564-1.35254-1.05127-2.43555-.769-3.13281a1.98786,1.98786,0,0,1,1.42871-1.03418.9.9,0,0,0-.48828-1.73242,3.65849,3.65849,0,0,0-2.6084,2.09082,3.27882,3.27882,0,0,0-.21246.8866,3.23835,3.23835,0,0,0-2.143-.19617.9.9,0,1,0,.35938,1.76367ZM25.21436,70.8942a2.83915,2.83915,0,0,0-1.44189-2.67969c-.04-.02118-.09229-.041-.13745-.06183,1.79535-1.26508,2.97589-2.11743,2.99927-2.13446a.89985.89985,0,1,0-1.05371-1.459c-.04687.0332-4.72314,3.40918-9.68262,6.74121a.9.9,0,1,0,1.00391,1.49414c1.10895-.74506,2.2002-1.49017,3.23279-2.202l.00256-.0011c1.35693-.95215,2.333-1.0293,2.7915-.78613a1.13492,1.13492,0,0,1,.48584,1.05957c-.021,1.30859-1.209,3.40625-4.48682,5.01172a.90035.90035,0,1,0,.792,1.61719C23.72412,75.53189,25.18359,72.79849,25.21436,70.8942Zm4.46729,9.77539c-1.01318,1.22852-1.70459,2.13379-1.36719,2.59277a.9.9,0,1,1-1.4502,1.06641,2.16314,2.16314,0,0,1-.44482-1.541,2.97352,2.97352,0,0,1-2.666-1.0498c-.853-1.06641-1.06641-3.125,1.13867-5.41895,2.26807-2.35742,4.63135-2.40723,5.86475-1.4541.8584.66211,1.46436,2.082.34912,3.90625A17.15645,17.15645,0,0,1,29.68164,80.66959ZM29.5708,77.8317c.32275-.52832.51514-1.21094.08643-1.542a1.171,1.171,0,0,0-.7168-.20215A4.10319,4.10319,0,0,0,26.18994,77.567c-1.30762,1.36035-1.46045,2.50977-1.03125,3.0459.3418.42773,1.16748.60742,2.17188.001a.89431.89431,0,0,1,.15234-.07422c.2583-.34668.53809-.68555.81006-1.01562A15.9046,15.9046,0,0,0,29.5708,77.8317Zm8.54395,1.10059a3.09744,3.09744,0,0,0-2.59937.14734,3.47651,3.47651,0,0,0-.15649-.59949,2.16531,2.16531,0,0,0-1.146-1.25488.90481.90481,0,0,0-1.17822.49414.89411.89411,0,0,0,.49072,1.16895,2.35259,2.35259,0,0,1-.03766,2.41235c-1.04956,2.26672-2.29144,4.37183-2.30365,4.39331a.89972.89972,0,1,0,1.54883.916c.05273-.08887,1.2998-2.20215,2.38965-4.55566.647-1.39551,1.644-1.73437,2.29395-1.46289.67578.28418,1.10254,1.24414.53223,2.74707a42.21859,42.21859,0,0,1-2.21289,4.584.90029.90029,0,0,0,.34326,1.22559.89846.89846,0,0,0,1.22559-.34277,43.30056,43.30056,0,0,0,2.32666-4.82812C40.62207,81.36588,39.53955,79.53189,38.11475,78.93228Zm10.59277-.9248c-.043,1.583-.31836,9.58008-1.54443,11.53711a3.25492,3.25492,0,0,1-2.8042,1.60059c-.07324,0-.147-.002-.22119-.00684a3.47991,3.47991,0,0,1-2.916-1.96973c-.61035-1.32227-.32861-5.25684,1.64355-6.95605a3.55588,3.55588,0,0,1,3.85449-.47656c.09375-1.32227.15771-2.64355.188-3.77734a.91384.91384,0,0,1,.92432-.875A.89975.89975,0,0,1,48.70752,78.00748ZM46.561,83.64713a3.1592,3.1592,0,0,0-1.49707-.46191,1.46,1.46,0,0,0-1.02393.39063c-1.34521,1.15918-1.49316,4.16895-1.18457,4.83789a1.65846,1.65846,0,0,0,1.396.92773,1.48155,1.48155,0,0,0,1.38623-.752A16.79379,16.79379,0,0,0,46.561,83.64713Zm9.20508-2.915a5.00018,5.00018,0,0,0-2.91522,1.984A2.63671,2.63671,0,0,0,51.252,81.26431a.876.876,0,0,0-1.05859.64355.921.921,0,0,0,.63184,1.10449,2.75031,2.75031,0,0,1,.74707,2.61621l.00006.0011a24.69887,24.69887,0,0,0,.04974,4.7948.90008.90008,0,0,0,.89453.80957c.03027,0,.06055-.002.09131-.00488a.90017.90017,0,0,0,.80518-.98633,22.41131,22.41131,0,0,1-.06348-4.33008c.20264-1.21094,1.20557-3.07324,2.80127-3.42285a.89972.89972,0,1,0-.38477-1.75781Zm7.752.14844a8.08339,8.08339,0,0,1,1.57715,5.8291A3.11935,3.11935,0,0,1,59.459,88.01041v-.001a8.52585,8.52585,0,0,1-1.18164-5.9707,2.82484,2.82484,0,0,1,2.13525-2.31445A2.93949,2.93949,0,0,1,63.51807,80.88053Zm-1.44531,1.07227a1.13639,1.13639,0,0,0-1.22119-.4834,1.03955,1.03955,0,0,0-.793.83105,6.77908,6.77908,0,0,0,.86523,4.66309,1.24377,1.24377,0,0,0,1.36768.53809A1.33208,1.33208,0,0,0,63.314,86.44791,6.31231,6.31231,0,0,0,62.07275,81.95279Zm9.57715,1.5625a3.99014,3.99014,0,0,1-2.91016-1.85937A23.49936,23.49936,0,0,1,65.311,74.735a.9.9,0,0,0-1.74219.45215,24.8593,24.8593,0,0,0,3.71,7.51953,5.74521,5.74521,0,0,0,4.36426,2.60938h.00244a.895.895,0,0,0,.89063-.89258A.90572.90572,0,0,0,71.6499,83.51529ZM75.92041,79.444c-.79.5293-2.17285.40527-3.33984-1.12012a22.27286,22.27286,0,0,1-3.25391-5.79.9.9,0,0,0-1.70947.56348,23.62166,23.62166,0,0,0,3.53369,6.32031,4.84182,4.84182,0,0,0,3.80127,2.10254,3.53947,3.53947,0,0,0,1.97021-.58008.90031.90031,0,0,0-1.002-1.49609Zm-3.374-10.05566a2.74533,2.74533,0,0,0-2.17139-.20215.89972.89972,0,1,0,.47949,1.73438.95938.95938,0,0,1,.79492.02832c.22607.12988.55176.49707.81885,1.50781a.89987.89987,0,0,0,1.74023-.459A3.964,3.964,0,0,0,72.54639,69.38834Zm4.30225-2.03125a.8996.8996,0,0,0-1.06885,1.03711c.4624,2.623.62891,5.124.63086,5.14941a.89986.89986,0,1,0,1.7959-.11719c-.00537-.08789-.12158-1.8291-.43408-3.97363A6.87288,6.87288,0,0,1,81.5083,72.029a1.46056,1.46056,0,0,1,.31689,1.40234,1.26356,1.26356,0,0,1-1.06738.63574.90042.90042,0,0,0,.09277,1.7959c.03125,0,.063-.002.09473-.00488a3.02968,3.02968,0,0,0,2.51855-1.68262A3.19338,3.19338,0,0,0,82.98,70.99381,9.371,9.371,0,0,0,76.84863,67.35709Zm-60.82959-5.21a.89988.89988,0,0,0,.40039-1.208A24.67576,24.67576,0,0,1,14.85205,54.192c-.064-.67871-.13135-1.31445-.19531-1.91992a29.09076,29.09076,0,0,1-.21924-6.38184,40.8079,40.8079,0,0,1,4.16162-13.50586.89976.89976,0,1,0-1.58105-.85937,42.81359,42.81359,0,0,0-4.37061,14.17773,30.40438,30.40438,0,0,0,.21924,6.75781c.06348.59961.12988,1.22949.19336,1.90039a26.658,26.658,0,0,0,1.751,7.38477.89927.89927,0,0,0,1.208.40137ZM86.69727,42.4899c-.189-.627-.38818-1.35645-.605-2.14844a40.88893,40.88893,0,0,0-3.34814-9.248.90006.90006,0,0,0-1.55762.90234A39.58565,39.58565,0,0,1,84.356,40.81607c.22119.80859.4248,1.55371.61768,2.19336a27.90281,27.90281,0,0,1,.916,9.02246,38.624,38.624,0,0,1-2.01172,9.14453.9.9,0,1,0,1.7168.541,40.23887,40.23887,0,0,0,2.09277-9.5957A29.7613,29.7613,0,0,0,86.69727,42.4899Z"/></svg>