<svg xmlns="http://www.w3.org/2000/svg" width="200" height="200" viewBox="0 0 200 200"><title>grabme</title><path d="M58.35661,29.17252a.91056.91056,0,0,1,.27.64063.92755.92755,0,0,1-.27.63965.90068.90068,0,0,1-.62988.25977.86076.86076,0,0,1-.83008-.55957.79327.79327,0,0,1-.07031-.33984.90117.90117,0,0,1,.26025-.64062A.93819.93819,0,0,1,58.35661,29.17252Zm2.65967.37012a.88757.88757,0,0,0-.27.62988,1.04269,1.04269,0,0,0,.07031.35059,1.16749,1.16749,0,0,0,.19971.29.81246.81246,0,0,0,.29.18945.847.847,0,0,0,.3501.07031.8319.8319,0,0,0,.33984-.07031.67911.67911,0,0,0,.15039-.08008.7271.7271,0,0,0,.13965-.10937,1.15645,1.15645,0,0,0,.2002-.29,1.04219,1.04219,0,0,0,.06982-.35059.88558.88558,0,0,0-.27-.62988A.91845.91845,0,0,0,61.01628,29.54263Zm-.52979,3.12012a.91847.91847,0,0,0-1.27,0,.84152.84152,0,0,0-.2002.29.99328.99328,0,0,0-.06982.33984,1.05427,1.05427,0,0,0,.06982.35059.96864.96864,0,0,0,.2002.29.87678.87678,0,0,0,.62988.25977.89958.89958,0,0,0,.64014-.25977.92569.92569,0,0,0,.18994-.29.841.841,0,0,0,.06982-.35059.79281.79281,0,0,0-.06982-.33984A.80939.80939,0,0,0,60.48649,32.66275Zm4,.21a.71558.71558,0,0,0-.14014-.10937,1.01739,1.01739,0,0,0-.1499-.08008.904.904,0,0,0-.98.18945.84152.84152,0,0,0-.2002.29,1.05427,1.05427,0,0,0-.06982.35059.998.998,0,0,0,.06982.33984.85082.85082,0,0,0,.2002.29.83694.83694,0,0,0,.29.19922.88124.88124,0,0,0,.68994,0,.5809.5809,0,0,0,.1499-.08984.71558.71558,0,0,0,.14014-.10937.89427.89427,0,0,0,.25977-.62988,1.03306,1.03306,0,0,0-.05957-.35059A1.15162,1.15162,0,0,0,64.48649,32.87271Zm4.6123,3.293-.01068.01477-.00348.00964c-1.10742,1.81934-3.12256,5.24414-4.13525,7.16211-1.28473,2.43182-7.08582,12.2019-9.18243,15.61871l-.00018.00043-.00079.0011-.00409.00671c-1.3667,2.22754-2.91748,4.95508-4.16357,7.14648l-1.05078,1.8418a51.44791,51.44791,0,0,1-3.19922,5.05371,7.43222,7.43222,0,0,1-6.04248,2.81055,10.78549,10.78549,0,0,1-5.3916-1.5498,11.09728,11.09728,0,0,1-4.9209-5.09082,5.96821,5.96821,0,0,1,.26465-5.373c.51807-.89746.853-1.458,1.1333-1.92676l.34912-.58594c.93945-1.59082,1.72021-2.97852,1.72217-2.98145l2.10352-3.62207c1.16064-1.99707,2.74072-4.52832,4.269-6.97656,1.27-2.03418,2.54492-4.07617,3.61279-5.8623,1.39014-2.32422,3.311-5.63574,4.44434-7.5957,1.60547-2.77637,4.02344-7.15234,4.04785-7.19629.00439-.008.01239-.01221.017-.02a4.61619,4.61619,0,0,1,2.8443-2.397c2.229-.69922,5.16455-.09961,8.26367,1.69043C68.76579,29.05826,70.83561,33.09732,69.0988,36.16568Zm-23.106,6.62109c-.32513.54376-.67352,1.11627-1.03088,1.7a10.13149,10.13149,0,0,0,8.51379,3.51782,13.82274,13.82274,0,0,0,10.47314-6.58008l.00214-.00238c.43915-.7923.94867-1.6864,1.46985-2.5838a8.50291,8.50291,0,0,1-2.18781.28052,11.38384,11.38384,0,0,1-5.62842-1.59863c-3.08948-1.78357-4.61517-3.89465-5.12762-5.92023-.67468,1.2019-1.40948,2.50116-2.02618,3.56769C49.31364,37.13345,47.38688,40.45474,45.99284,42.78678ZM36.02507,59.21744l-.043.076a12.09512,12.09512,0,0,0,9.69092,3.2511c3.80078-.31641,7.07666-2.04,8.5498-4.499l.00055-.00055.00433-.00726c1.33051-2.16821,4.15375-6.90021,6.35413-10.664a14.84453,14.84453,0,0,1-6.98108,2.4267c-.29883.02051-.59668.03125-.89111.03125a11.989,11.989,0,0,1-8.72388-3.761c-.532.85828-1.07684,1.73236-1.62378,2.60864-1.521,2.43555-3.09326,4.9541-4.23926,6.92676Zm15.40979,3.56427a15.32418,15.32418,0,0,1-5.61243,1.55682c-.45605.03711-.91016.05664-1.35889.05664a13.71751,13.71751,0,0,1-9.41412-3.47327c-.231.39886-.48651.83746-.75873,1.29846l-.35449.59473c-.27686.46289-.60791,1.0166-1.11963,1.90332a4.20543,4.20543,0,0,0-.16016,3.78418,9.35383,9.35383,0,0,0,4.15771,4.2207c3.873,2.2373,7.57275,1.26953,9.08789-.77441a49.20761,49.20761,0,0,0,3.084-4.876L50.03337,65.236C50.46842,64.471,50.94615,63.63364,51.43486,62.78171ZM63.16471,27.903a11.33672,11.33672,0,0,0-5.40381-1.73242,4.73476,4.73476,0,0,0-1.42041.20117,2.822,2.822,0,0,0-1.79834,1.51758c-1.33936,2.84863.14209,5.86621,3.9624,8.07227a8.69783,8.69783,0,0,0,6.48633,1.13184,4.01324,4.01324,0,0,0,2.538-1.80969l.00543-.009C68.72935,33.15463,66.8928,30.05588,63.16471,27.903ZM166.77653,137.2731a.90125.90125,0,0,0,.64014-.25977.84279.84279,0,0,0,.19971-.29.88248.88248,0,0,0,0-.69043.83368.83368,0,0,0-.19971-.29.92815.92815,0,0,0-1.27,0,.99074.99074,0,0,0-.2002.29,1.032,1.032,0,0,0-.06006.34961,1.0196,1.0196,0,0,0,.06006.34082,1.00381,1.00381,0,0,0,.2002.29A.89342.89342,0,0,0,166.77653,137.2731Zm3.23,2.2793a.89342.89342,0,0,0,.62988-.25977.99074.99074,0,0,0,.2002-.29,1.08522,1.08522,0,0,0,.0498-.16992,1.14439,1.14439,0,0,0,.02051-.16992,1.03236,1.03236,0,0,0-.07031-.34961.97751.97751,0,0,0-.49023-.49023.91291.91291,0,0,0-.98.2002.9894.9894,0,0,0-.19971.29,1.02378,1.02378,0,0,0-.06006.34961,1.00984,1.00984,0,0,0,.06006.33984.9894.9894,0,0,0,.19971.29A.89958.89958,0,0,0,170.00651,139.5524Zm-2.49023.27051a.98836.98836,0,0,0-.28955-.2002.91372.91372,0,0,0-.98047.2002.83368.83368,0,0,0-.19971.29,1.02786,1.02786,0,0,0-.06006.34961.828.828,0,0,0,.06982.33984.80736.80736,0,0,0,.18994.29.99723.99723,0,0,0,.29.2002,1.031,1.031,0,0,0,.3501.06055.89028.89028,0,0,0,.62988-.26074.81965.81965,0,0,0,.2002-.29,1.02509,1.02509,0,0,0,.06982-.33984,1.03664,1.03664,0,0,0-.06982-.34961A.82845.82845,0,0,0,167.51628,139.82291Zm3.46973,2.32031a.61252.61252,0,0,0-.10937-.12988.82207.82207,0,0,0-.29-.2002.8841.8841,0,0,0-.98.2002.83112.83112,0,0,0-.2002.28906,1.03561,1.03561,0,0,0-.06982.34082.91.91,0,0,0,.27.63965.81056.81056,0,0,0,.29.19043.79815.79815,0,0,0,.33984.06934.84455.84455,0,0,0,.3501-.06934.81056.81056,0,0,0,.29-.19043.90011.90011,0,0,0,.25977-.63965.8206.8206,0,0,0-.07031-.34082A.7592.7592,0,0,0,170.986,142.14322Zm2.47168,5.42578-.01947.00964-.00592.005c-1.86328,1.01855-5.31787,2.97461-7.16211,4.13379-2.333,1.4668-12.25439,7.03418-15.77,8.93945-2.28125,1.2373-4.97266,2.81445-7.13477,4.082l-1.86816,1.0918a51.3179,51.3179,0,0,1-5.30371,2.7793,6.593,6.593,0,0,1-2.62939.5293c-2.73437,0-5.82764-1.55664-7.90381-5.15234a11.09594,11.09594,0,0,1-1.71582-6.87012,5.96475,5.96475,0,0,1,2.91553-4.52051c.91064-.52637,1.48486-.8457,1.9668-1.11426l.57373-.32129c1.6084-.90723,2.97852-1.71973,2.98145-1.72168l3.6333-2.084c2.00439-1.15039,4.63965-2.55273,7.188-3.90918,2.11621-1.126,4.24023-2.25684,6.05713-3.26855,2.36572-1.31836,5.68506-3.22559,7.647-4.35645,2.77832-1.60156,7.06006-4.18262,7.103-4.208.00818-.00494.01752-.00464.02576-.00928a4.61628,4.61628,0,0,1,3.66174-.65283c2.28027.50879,4.52148,2.49609,6.31055,5.59473C176.72331,141.24674,176.49674,145.77994,173.45768,147.569Zm-25.045-4.87274a10.17306,10.17306,0,0,0,5.59534,7.31317,13.81766,13.81766,0,0,0,12.35938-.46094l.001-.00031c.77753-.46735,1.66632-.98718,2.56622-1.5036a10.49832,10.49832,0,0,1-6.10876-5.0498c-1.78394-3.08978-2.04944-5.68115-1.48-7.69183-1.18549.70367-2.4718,1.46149-3.53949,2.0766-1.96729,1.13477-5.29736,3.04785-7.66992,4.37012C149.58872,142.0549,149.00736,142.373,148.41264,142.69626Zm-15.1239,8.29755-.07574.04486a12.05984,12.05984,0,0,0,6.76862,7.66217c3.44818,1.62592,7.14673,1.77142,9.65216.379l.009-.005c2.23425-1.21149,7.04242-3.89606,10.82971-6.05536-.28418.015-.56848.02606-.85217.02606a14.6445,14.6445,0,0,1-6.40137-1.418,11.993,11.993,0,0,1-6.45819-8.04c-.89014.47729-1.79944.96179-2.71173,1.44727-2.53613,1.34961-5.15869,2.74609-7.13818,3.88086Zm11.5755,10.78571a15.28263,15.28263,0,0,1-5.6507-1.45074,14.00933,14.00933,0,0,1-7.61456-8.34967c-.40143.23132-.84454.485-1.31366.75006l-.583.3252c-.47559.26563-1.04248.58105-1.94238,1.10059a4.204,4.204,0,0,0-2.03076,3.19727,9.34951,9.34951,0,0,0,1.48975,5.73438c2.23633,3.874,5.92334,4.88477,8.25781,3.873a48.83077,48.83077,0,0,0,5.11523-2.68555l1.86328-1.08887C143.20487,162.74606,144.02629,162.26645,144.86424,161.77951ZM172.44987,137.446c-1.5127-2.61914-3.38721-4.3457-5.14453-4.73828a3.31378,3.31378,0,0,0-.731-.084,2.71442,2.71442,0,0,0-1.585.499c-2.584,1.79785-2.81055,5.15234-.605,8.97168a8.69546,8.69546,0,0,0,5.05029,4.22363,4.01279,4.01279,0,0,0,3.10272-.29706l.00854-.0047C174.64286,144.77854,174.60325,141.17484,172.44987,137.446Z"/></svg>