<svg xmlns="http://www.w3.org/2000/svg"><symbol id="symbol-logo" viewBox="0 0 100 100"><title>grabme</title><path d="M27.6 47a.8.8 0 0 1-.1-.4.9.9 0 0 1 .3-.6l.3-.2h.7l.3.2a.9.9 0 0 1 .3.6.8.8 0 0 1-.1.4l-.2.3-.3.2h-.3a.9.9 0 0 1-.6-.3zm-.2 2.6a.9.9 0 0 0-1.3 0 .9.9 0 0 0-.3.6.8.8 0 0 0 .1.3l.2.3.3.2h.4l.6-.3a.9.9 0 0 0 .3-.6.9.9 0 0 0-.3-.5zm3 1.5h.4l.3-.2.2-.3a.8.8 0 0 0 .1-.3.9.9 0 0 0-.3-.6.9.9 0 0 0-1.3 0 .9.9 0 0 0 0 1.3zm-1.2 3.3l.2-.3a1 1 0 0 0 .1-.3.9.9 0 0 0-.3-.6.9.9 0 0 0-1.3 0 .9.9 0 0 0-.3.6.8.8 0 0 0 .1.3l.2.3a.9.9 0 0 0 .6.3zm26.7-19.6l1.4.2a27.6 27.6 0 0 1 1.3-5.6 3.7 3.7 0 0 1 3.9-2.7 3.7 3.7 0 0 1 3.1 3.8c.1 1 0 2.4-.1 3.9a41.9 41.9 0 0 0 0 6.5h5.6c3.4 0 6.7 2.9 6.7 9.3s-3.4 8.9-6.8 9.3a46.6 46.6 0 0 1-5.2.2c0 3.3-.3 5.8-2.1 8.6-3.1 4.9-7.3 5.2-11.4 5.5H52l-3.7.2c-4.2 0-8.9-1-11-6.8v-.3c-.8-2.3-1.7-4.8-1.6-7.1h-7.4c-3.5 0-6-3.8-6-9.3 0-3.6.9-6.4 2.7-8a4.6 4.6 0 0 1 3.5-1.3h7.4a39.5 39.5 0 0 1 2.2-11.5c1.3-3.7 3.5-4.7 5-4.3s3 2 2.5 5.6c-.1 1-.3 2-.4 3.1s-.3 2.1-.5 3.2a6 6 0 0 1 3.5-2.3 4.9 4.9 0 0 1 4.2 1 6.5 6.5 0 0 1 3.5-1.2zm-11.2 6.4a4.5 4.5 0 0 1 3.2 1.1 4.7 4.7 0 0 1 1 3.6 3 3 0 0 1 2.2 1.5 4 4 0 0 1 .2 2.9 2.4 2.4 0 0 0 1.8-1.9c1-4.2.5-8.1-1.5-10.6a3.1 3.1 0 0 0-3.1-1.1c-1.6.4-2.9 2-3.8 4.5zm-7.1.1h5a47.5 47.5 0 0 1 .7-7.4c.2-1 .3-2 .4-3s-.4-3.5-1.1-3.7-2.1.8-2.9 3.1a37.6 37.6 0 0 0-2 10.9zm-9.3 16.6a4 4 0 0 0 2.8-1.3 8.7 8.7 0 0 0 2.3-6.2c0-4.4-1.9-7.2-5-7.5a2.8 2.8 0 0 0-2.2.8c-1.3 1.2-2.1 3.7-2.1 6.7s1.8 7.5 4.2 7.5zm7.6 0c1.8-6.7 8-11.1 11.2-11.9a3.3 3.3 0 0 0-.4-2.4c-.5-.5-1.5-.7-3-.6h-11c1.5 1.5 2.6 3.8 2.6 7.4a10.5 10.5 0 0 1-2.8 7.4zM64 59.5H46.2a10.6 10.6 0 0 0 2.4 3.5.9.9 0 1 1-1.2 1.3c-.3-.3-3.2-3.1-3.2-5.7 0-2.7 1.9-4.6 3.4-6.1a13.9 13.9 0 0 0 1.5-1.6 3 3 0 0 0 .4-2.6c-.2-.4-.7-.6-1.5-.6-2 0-9.1 4.6-10.5 11.3-.4 2.1.5 4.8 1.4 7.2v.3c2.2 6.2 8.1 5.8 12.9 5.4h.4c4.6-.3 7.6-.8 10-4.7s1.8-4.7 1.8-7.7zm7.1-17h-1.8c.4 3.5-1 7.3-3.8 10.8a19.2 19.2 0 0 1-5 4.4h4.6a48.4 48.4 0 0 0 5.7-.2c2.5-.3 5.2-3 5.2-7.5s-2.4-7.5-4.9-7.5zm-6.4 0h-3.1a15.7 15.7 0 0 1-1.1 6.9 3.7 3.7 0 0 1-3.1 2.2h-.2a4.4 4.4 0 0 1-3-1.3 4.5 4.5 0 0 1-4 2l-1.4 1.5a9.5 9.5 0 0 0-2.8 4h8.5c3 0 6.7-2.2 9.4-5.5s3.7-6.6 3.4-9.6zM59 36.1a9.9 9.9 0 0 1 2.4 4.7h2.4a45 45 0 0 1 0-6.5c.1-1.4.1-2.7.1-3.7s-.8-2-1.5-2.1a1.9 1.9 0 0 0-2 1.5 24.8 24.8 0 0 0-1.4 6.1zm-3 .5a4.7 4.7 0 0 0-2.4.8c1.8 2.8 2.4 6.9 1.4 11a3.1 3.1 0 0 0 2.4 1.4 2 2 0 0 0 1.6-1.2c.8-1.6 1-4.8.8-6.8a8 8 0 0 0-2.4-4.8 2 2 0 0 0-1.4-.4zM23.4 24.1c-1.5-2-1.8-4.3-.7-5.7a3 3 0 0 1 3.4-1c1.6.5 3 2.6 4.7 5.1l.2.3c1.1 1.6 2.1 3.1 1.6 4.7s-1.6 2.1-3.7 2.9h-.3a.9.9 0 0 1-.3-1.7c1.5-.5 2.4-1.2 2.6-1.8a2.7 2.7 0 0 0-.6-2 3.9 3.9 0 0 1-2.4 1.3c-1 .4-2.8.3-4.5-2.1zm1.5-1.1a3.1 3.1 0 0 0 2.7 1.6 2.3 2.3 0 0 0 1.6-1.2c-1.2-1.8-2.7-4-3.7-4.3H25a1 1 0 0 0-.8.4c-.5.6-.5 2 .7 3.6zm11.2-8c-.4-2.7.7-4.1 1.9-4.6a2.6 2.6 0 0 1 3.1 1.2 20.8 20.8 0 0 1 1.4 3.2c.5 1.3.9 2.6 1.5 2.7a.9.9 0 0 1-.3 1.8 2.5 2.5 0 0 1-1.5-1 3.3 3.3 0 0 1-2.6 1.7h-.3c-1.8-.3-2.8-2.9-3.2-5zm1.8-.3c.3 1.9 1.1 3.4 1.7 3.5s.8-.3 1.6-1.7l-.3-.9a19 19 0 0 0-1.3-3 .8.8 0 0 0-.7-.5h-.2c-.6.2-1 1.1-.8 2.6zm7.4 1.3a79.4 79.4 0 0 1-.9-10.1.9.9 0 0 1 1.8-.1c0 .6.1 1.9.2 3.5a3.1 3.1 0 0 1 2.4-.3c1.5.5 2.5 2.1 2.7 4.4s-1.4 4.9-3.1 5.1h-.3a2.8 2.8 0 0 1-2.8-2.5zm1.2-4.6c.1 1.4.3 2.9.5 4.3s.5 1.2 1.1 1.1 1.7-1.1 1.6-3.2-.7-2.6-1.4-2.9a1.7 1.7 0 0 0-1.7.6zm12 8.1a.9.9 0 0 0 1.1-.6 36.4 36.4 0 0 1 2-4.8 1.7 1.7 0 0 1 2.3-.8 1.2 1.2 0 0 1 .7 1.5l-2.4 4.7a.9.9 0 0 0 .4 1.2h.4a.9.9 0 0 0 .8-.5l2.4-4.6a1.7 1.7 0 0 1 2.3 0 1.2 1.2 0 0 1 0 1.8 31.2 31.2 0 0 0-2.7 4.3.9.9 0 0 0 .4 1.2h.4a.9.9 0 0 0 .8-.5 30 30 0 0 1 2.5-4 2.9 2.9 0 0 0-.2-4.2 3.5 3.5 0 0 0-3.3-.8 3.2 3.2 0 0 0-1.7-1.9 3.5 3.5 0 0 0-3.3.1v-.2a2.2 2.2 0 0 0-1.8-1 .9.9 0 0 0 0 1.8c.2 0 .3.2.3.2a.9.9 0 0 1 .1.8 38.4 38.4 0 0 0-2 5.1.9.9 0 0 0 .6 1.1zm12.2 1.7c.8-.9 2.4-2.6 4.1-2.8a2.5 2.5 0 0 1 2.9 1.7 2.7 2.7 0 0 1-1.4 3.2c-1.6.8-3.6.1-4.7-.4a1.6 1.6 0 0 0 .1 1.5 2.1 2.1 0 0 0 2.2.9.9.9 0 1 1 .3 1.8h-.8a3.8 3.8 0 0 1-3.3-1.8 3.6 3.6 0 0 1 .7-4.1zm2.2.3a3.7 3.7 0 0 0 2.7.2.9.9 0 0 0 .5-1c-.1-.4-.5-.5-1-.5a4.4 4.4 0 0 0-2.1 1.3zm-44-4.2c.6-.1 1.4-.3 2.9 2.2l1.9 3a.9.9 0 0 0 .8.4h.5a.9.9 0 0 0 .3-1.2l-1.8-2.9c-.8-1.4-1.1-2.4-.8-3.1a2 2 0 0 1 1.4-1 .9.9 0 1 0-.5-1.7 3.7 3.7 0 0 0-2.6 2.1 3.3 3.3 0 0 0-.2.9 3.2 3.2 0 0 0-2.1-.2.9.9 0 0 0 .4 1.8zm-3.7 53.6a2.8 2.8 0 0 0-1.4-2.7h-.1l3-2.1a.9.9 0 1 0-1.1-1.5s-4.7 3.4-9.7 6.7a.9.9 0 0 0 .5 1.6l.5-.2 3.2-2.2c1.4-1 2.3-1 2.8-.8a1.1 1.1 0 0 1 .5 1.1c0 1.3-1.2 3.4-4.5 5a.9.9 0 0 0 .4 1.7h.4c4-2 5.5-4.7 5.5-6.6zm4.5 9.8c-1 1.2-1.7 2.1-1.4 2.6a.9.9 0 0 1-.2 1.3l-.5.2a.9.9 0 0 1-.7-.4 2.2 2.2 0 0 1-.4-1.5 3 3 0 0 1-2.7-1c-.9-1.1-1.1-3.1 1.1-5.4s4.6-2.4 5.9-1.5 1.5 2.1.3 3.9a17.1 17.1 0 0 1-1.4 1.8zm-.1-2.8c.3-.5.5-1.2.1-1.5l-.7-.2a4.1 4.1 0 0 0-2.8 1.5c-1.3 1.4-1.5 2.5-1 3s1.2.6 2.2 0h.2l.8-1a15.9 15.9 0 0 0 1.2-1.9zm8.5 1.1a3.1 3.1 0 0 0-2.6.1l-.2-.6a2.2 2.2 0 0 0-1.1-1.3.9.9 0 0 0-1.2.5.9.9 0 0 0 .5 1.2 2.4 2.4 0 0 1 0 2.4c-1 2.3-2.3 4.4-2.3 4.4a.9.9 0 0 0 1.5.9c.1-.1 1.3-2.2 2.4-4.6s1.6-1.7 2.3-1.5 1.1 1.2.5 2.7a42.2 42.2 0 0 1-2.2 4.6.9.9 0 0 0 .3 1.2h.4a.9.9 0 0 0 .8-.5 43.3 43.3 0 0 0 2.4-4.5c1-2.6-.1-4.5-1.5-5.1zm10.6-1c0 1.6-.3 9.6-1.5 11.5a3.3 3.3 0 0 1-2.8 1.6h-.2a3.5 3.5 0 0 1-2.9-2c-.6-1.3-.3-5.3 1.6-7a3.6 3.6 0 0 1 3.9-.5c.1-1.4.2-2.7.2-3.8a.9.9 0 0 1 .9-.9.9.9 0 0 1 .8 1.1zm-2.1 5.6a3.2 3.2 0 0 0-1.5-.5 1.5 1.5 0 0 0-1 .4c-1.3 1.2-1.5 4.2-1.2 4.8a1.7 1.7 0 0 0 1.4.9 1.5 1.5 0 0 0 1.4-.8 16.5 16.5 0 0 0 .9-4.8zm9.2-2.9a5 5 0 0 0-2.9 2 2.6 2.6 0 0 0-1.6-1.5.9.9 0 0 0-1.1.6.9.9 0 0 0 .6 1.1 2.7 2.7 0 0 1 .7 2.6 24.7 24.7 0 0 0 0 4.8.9.9 0 0 0 .9.8h.1a.9.9 0 0 0 .8-1 22.4 22.4 0 0 1-.1-4.3c.2-1.2 1.2-3.1 2.8-3.4a.9.9 0 1 0-.4-1.8zm7.8.1a8.1 8.1 0 0 1 1.6 5.8 3.1 3.1 0 0 1-2.4 2.5H62a3.1 3.1 0 0 1-2.5-1.1 8.5 8.5 0 0 1-1.2-6 2.8 2.8 0 0 1 2.1-2.3 2.9 2.9 0 0 1 3.1 1.2zM62.1 82a1.2 1.2 0 0 0-.9-.5h-.3a1 1 0 0 0-.8.8A6.8 6.8 0 0 0 61 87a1.2 1.2 0 0 0 1.4.5 1.3 1.3 0 0 0 1-1.1 6.3 6.3 0 0 0-1.3-4.4zm9.6 1.6a4 4 0 0 1-2.9-1.9 23.5 23.5 0 0 1-3.4-6.9.9.9 0 0 0-1.7.5 24.9 24.9 0 0 0 3.7 7.5 5.7 5.7 0 0 0 4.4 2.6.9.9 0 0 0 .9-.9.9.9 0 0 0-1.1-1zm4.3-4.1c-.8.5-2.2.4-3.3-1.1a22.3 22.3 0 0 1-3.3-5.8.9.9 0 0 0-1.7.6 23.6 23.6 0 0 0 3.5 6.3 4.8 4.8 0 0 0 3.8 2 3.5 3.5 0 0 0 2-.6.9.9 0 0 0-1-1.5zm-3.5-10.1a2.8 2.8 0 0 0-2.2-.2.9.9 0 1 0 .5 1.7 1 1 0 0 1 .8 0c.2.1.6.5.8 1.5a.9.9 0 0 0 .9.7h.2a.9.9 0 0 0 .6-1.1 4 4 0 0 0-1.6-2.6zm4.3-2a.9.9 0 0 0-1.1 1c.5 2.6.6 5.1.6 5.1a.9.9 0 1 0 1.8-.1c0-.1-.1-1.8-.4-4a6.9 6.9 0 0 1 3.8 2.6 1.5 1.5 0 0 1 .3 1.4 1.3 1.3 0 0 1-1.1.6.9.9 0 0 0 .1 1.8h.1a3 3 0 0 0 2.5-1.7A3.2 3.2 0 0 0 83 71a9.4 9.4 0 0 0-6.2-3.6zM16 62.1a.9.9 0 0 0 .4-1.2 24.7 24.7 0 0 1-1.6-6.7l-.2-1.9a29.1 29.1 0 0 1-.2-6.4 40.8 40.8 0 0 1 4.2-13.5.9.9 0 1 0-1.6-.9 42.8 42.8 0 0 0-4.4 14.2 30.4 30.4 0 0 0 .2 6.8l.2 1.9a26.7 26.7 0 0 0 1.8 7.4.9.9 0 0 0 .8.5zm70.7-19.6l-.6-2.2a40.9 40.9 0 0 0-3.3-9.2.9.9 0 0 0-1.6.9 39.5 39.5 0 0 1 3.2 8.8L85 43a27.9 27.9 0 0 1 .9 9 38.6 38.6 0 0 1-2 9.1.9.9 0 0 0 .6 1.1h.3a.9.9 0 0 0 .9-.6 40.3 40.3 0 0 0 2.1-9.6 29.8 29.8 0 0 0-1.1-9.5z"/></symbol><symbol id="symbol-pattern" viewBox="0 0 60 60"><title>grabme</title><path d="M41.8 13a.9.9 0 0 1 0-1.3.9.9 0 0 1 1-.2l.3.2a.9.9 0 0 1 0 1.3l-.6.3a.9.9 0 0 1-.7-.3zm4.3 1.6h.3l.3-.2a1 1 0 0 0 .3-.6.9.9 0 0 0-.3-.6.9.9 0 0 0-1-.2h-.3a.9.9 0 0 0 0 1.3zm-3.2 1a.9.9 0 0 0-.3.6.9.9 0 0 0 .3.6l.6.3a.9.9 0 0 0 .6-.3.9.9 0 0 0 0-1.3.9.9 0 0 0-1-.2zm3.6 1.9a.8.8 0 0 0 .1.3l.2.3.6.3h.3l.3-.2.2-.3a.8.8 0 0 0 .1-.3.9.9 0 0 0-.3-.6.9.9 0 0 0-1-.2l-.3.2a.9.9 0 0 0-.2.5zm5.3 3.9c-1.5 1.5-4.4 4.2-5.8 5.8S35.9 37.3 33 40l-5.9 5.8-1.5 1.5a51.5 51.5 0 0 1-4.4 4 7 7 0 0 1-4.4 1.4 10 10 0 0 1-7-3.2C5.3 45 5.6 40.6 8 38.2l1.6-1.6.5-.5 2.4-2.4 3-3 5.9-5.6 5-4.7 6.3-6.2 5.8-5.9A4.6 4.6 0 0 1 42 6.9c2.3-.1 5 1.2 7.5 3.8s4.8 8.2 2.3 10.7zM39.9 9.7c-2 2.4-1.4 5.7 1.7 8.8a8.7 8.7 0 0 0 5.9 2.8 4 4 0 0 0 2.9-1.1c1.7-1.7.7-5.2-2.3-8.3s-4.3-3.2-6-3.2H42a2.8 2.8 0 0 0-2.1 1zM26.4 23.2a10.2 10.2 0 0 0 7.3 5.6 13.8 13.8 0 0 0 11.8-3.6l2.1-2.1a10.5 10.5 0 0 1-7.2-3.3c-2.5-2.5-3.5-5-3.4-7l-2.9 2.9-6.3 6.2zM13.9 35.1h-.1a12.1 12.1 0 0 0 8.5 5.6c3.8.7 7.4-.1 9.4-2.1l9-8.6a15.5 15.5 0 0 1-4.8.8l-2.6-.2a12 12 0 0 1-8.3-6.1l-2.2 2.1-5.9 5.6zm14 7.4a14.5 14.5 0 0 1-2.9.3l-2.9-.3a14 14 0 0 1-9.5-6.1l-1.1 1.1-.5.5-1.6 1.6a4.2 4.2 0 0 0-1.1 3.6 9.4 9.4 0 0 0 2.9 5.2c3.2 3.2 7 3.2 9 1.6a49 49 0 0 0 4.2-3.9l1.5-1.5z"/></symbol></svg>