<svg xmlns="http://www.w3.org/2000/svg" width="200" height="200" viewBox="0 0 200 200"><title>grabme</title><path d="M58.357 29.173a.91.91 0 0 1 .27.64.928.928 0 0 1-.27.64.9.9 0 0 1-.63.26.86.86 0 0 1-.83-.56.793.793 0 0 1-.07-.34.901.901 0 0 1 .26-.64.938.938 0 0 1 1.27 0zm2.66.37a.888.888 0 0 0-.27.63 1.043 1.043 0 0 0 .07.35 1.167 1.167 0 0 0 .2.29.812.812 0 0 0 .29.19.847.847 0 0 0 .35.07.832.832 0 0 0 .34-.07.68.68 0 0 0 .15-.08.727.727 0 0 0 .14-.11 1.156 1.156 0 0 0 .2-.29 1.042 1.042 0 0 0 .07-.35.886.886 0 0 0-.27-.63.918.918 0 0 0-1.27 0zm-.53 3.12a.918.918 0 0 0-1.27 0 .842.842 0 0 0-.2.29.993.993 0 0 0-.07.34 1.054 1.054 0 0 0 .07.35.969.969 0 0 0 .2.29.877.877 0 0 0 .63.26.9.9 0 0 0 .64-.26.926.926 0 0 0 .19-.29.841.841 0 0 0 .07-.35.793.793 0 0 0-.07-.34.81.81 0 0 0-.19-.29zm4 .21a.716.716 0 0 0-.14-.11 1.017 1.017 0 0 0-.15-.08.904.904 0 0 0-.98.19.842.842 0 0 0-.2.29 1.054 1.054 0 0 0-.07.35.998.998 0 0 0 .07.34.85.85 0 0 0 .2.29.837.837 0 0 0 .29.2.881.881 0 0 0 .69 0 .58.58 0 0 0 .15-.09.716.716 0 0 0 .14-.11.894.894 0 0 0 .26-.63 1.033 1.033 0 0 0-.06-.35 1.152 1.152 0 0 0-.2-.29zm4.612 3.293l-.01.015-.004.01c-1.108 1.819-3.123 5.243-4.136 7.161-1.284 2.432-7.085 12.202-9.182 15.619l-.001.002-.004.006c-1.367 2.228-2.918 4.955-4.164 7.147l-1.05 1.842a51.448 51.448 0 0 1-3.2 5.053 7.432 7.432 0 0 1-6.042 2.81 10.785 10.785 0 0 1-5.392-1.549 11.097 11.097 0 0 1-4.92-5.09 5.968 5.968 0 0 1 .264-5.374c.518-.897.853-1.458 1.133-1.927l.35-.586c.939-1.59 1.72-2.978 1.722-2.981l2.103-3.622c1.16-1.997 2.74-4.528 4.27-6.977a376.922 376.922 0 0 0 3.612-5.862 683.984 683.984 0 0 0 4.444-7.596 529.909 529.909 0 0 0 4.048-7.196c.004-.008.012-.012.017-.02a4.616 4.616 0 0 1 2.844-2.397c2.23-.7 5.165-.1 8.264 1.69 4.7 2.714 6.77 6.753 5.034 9.822zm-23.106 6.62a192.73 192.73 0 0 1-1.031 1.7 10.131 10.131 0 0 0 8.514 3.519 13.823 13.823 0 0 0 10.473-6.58l.002-.003c.44-.792.949-1.686 1.47-2.584a8.503 8.503 0 0 1-2.188.28 11.384 11.384 0 0 1-5.628-1.598c-3.09-1.783-4.616-3.894-5.128-5.92a341.19 341.19 0 0 1-2.026 3.568 706.661 706.661 0 0 1-4.458 7.619zm-9.968 16.431l-.043.076a12.095 12.095 0 0 0 9.691 3.252c3.8-.317 7.077-2.04 8.55-4.5l.005-.007c1.33-2.168 4.153-6.9 6.354-10.664A14.845 14.845 0 0 1 53.6 49.8c-.3.02-.597.032-.891.032a11.989 11.989 0 0 1-8.724-3.761c-.532.858-1.077 1.732-1.624 2.608-1.521 2.436-3.093 4.954-4.24 6.927zm15.41 3.565a15.324 15.324 0 0 1-5.613 1.557c-.456.037-.91.056-1.358.056a13.718 13.718 0 0 1-9.415-3.473 177.6 177.6 0 0 1-.758 1.298l-.355.595a126.9 126.9 0 0 0-1.12 1.903 4.205 4.205 0 0 0-.16 3.785 9.354 9.354 0 0 0 4.158 4.22c3.873 2.238 7.573 1.27 9.088-.774a49.208 49.208 0 0 0 3.084-4.876l1.047-1.837c.435-.765.913-1.602 1.402-2.454zm11.73-34.879a11.337 11.337 0 0 0-5.404-1.732 4.735 4.735 0 0 0-1.42.2 2.822 2.822 0 0 0-1.799 1.518c-1.34 2.849.142 5.867 3.963 8.073a8.698 8.698 0 0 0 6.486 1.131 4.013 4.013 0 0 0 2.538-1.81l.005-.008c1.195-2.12-.641-5.22-4.37-7.372zm103.612 109.37a.901.901 0 0 0 .64-.26.843.843 0 0 0 .2-.29.882.882 0 0 0 0-.69.834.834 0 0 0-.2-.29.928.928 0 0 0-1.27 0 .99.99 0 0 0-.2.29 1.032 1.032 0 0 0-.06.35 1.02 1.02 0 0 0 .06.34 1.004 1.004 0 0 0 .2.29.893.893 0 0 0 .63.26zm3.23 2.28a.893.893 0 0 0 .63-.26.99.99 0 0 0 .2-.29 1.085 1.085 0 0 0 .05-.17 1.144 1.144 0 0 0 .02-.17 1.032 1.032 0 0 0-.07-.35.978.978 0 0 0-.49-.49.913.913 0 0 0-.98.2.99.99 0 0 0-.2.29 1.024 1.024 0 0 0-.06.35 1.01 1.01 0 0 0 .06.34.99.99 0 0 0 .2.29.9.9 0 0 0 .64.26zm-2.49.27a.988.988 0 0 0-.29-.2.914.914 0 0 0-.98.2.834.834 0 0 0-.2.29 1.028 1.028 0 0 0-.06.35.828.828 0 0 0 .07.34.807.807 0 0 0 .19.29.997.997 0 0 0 .29.2 1.031 1.031 0 0 0 .35.06.89.89 0 0 0 .63-.26.82.82 0 0 0 .2-.29 1.025 1.025 0 0 0 .07-.34 1.037 1.037 0 0 0-.07-.35.828.828 0 0 0-.2-.29zm3.469 2.32a.613.613 0 0 0-.11-.13.822.822 0 0 0-.29-.2.884.884 0 0 0-.98.2.831.831 0 0 0-.2.29 1.036 1.036 0 0 0-.07.34.91.91 0 0 0 .27.64.81.81 0 0 0 .29.19.798.798 0 0 0 .34.07.845.845 0 0 0 .35-.07.81.81 0 0 0 .29-.19.9.9 0 0 0 .26-.64.82.82 0 0 0-.07-.34.76.76 0 0 0-.08-.16zm2.472 5.426l-.02.01-.006.005c-1.863 1.018-5.318 2.974-7.162 4.133-2.333 1.467-12.254 7.035-15.77 8.94-2.281 1.237-4.972 2.814-7.135 4.082l-1.868 1.092a51.318 51.318 0 0 1-5.303 2.779 6.593 6.593 0 0 1-2.63.53c-2.734 0-5.827-1.557-7.904-5.153a11.096 11.096 0 0 1-1.715-6.87 5.965 5.965 0 0 1 2.915-4.52c.91-.527 1.485-.846 1.967-1.115l.574-.321a175.39 175.39 0 0 0 2.981-1.722l3.633-2.084c2.005-1.15 4.64-2.553 7.188-3.91a379.512 379.512 0 0 0 6.057-3.268 697.656 697.656 0 0 0 7.647-4.356c2.779-1.602 7.06-4.183 7.103-4.208.009-.005.018-.005.026-.01a4.616 4.616 0 0 1 3.662-.652c2.28.509 4.521 2.496 6.31 5.595 2.715 4.7 2.489 9.234-.55 11.023zm-25.045-4.873a10.173 10.173 0 0 0 5.595 7.313 13.818 13.818 0 0 0 12.36-.46 150.87 150.87 0 0 1 2.567-1.504 10.498 10.498 0 0 1-6.11-5.05c-1.783-3.09-2.049-5.681-1.48-7.692a334.42 334.42 0 0 1-3.539 2.077 687.669 687.669 0 0 1-7.67 4.37c-.547.305-1.129.623-1.723.946zm-15.124 8.298l-.076.045a12.06 12.06 0 0 0 6.769 7.662c3.448 1.626 7.146 1.771 9.652.379l.009-.005c2.234-1.212 7.042-3.896 10.83-6.056a16.18 16.18 0 0 1-.853.027 14.645 14.645 0 0 1-6.401-1.418 11.993 11.993 0 0 1-6.458-8.04c-.89.477-1.8.961-2.712 1.447-2.536 1.35-5.159 2.746-7.138 3.88zm11.575 10.786a15.283 15.283 0 0 1-5.65-1.451 14.01 14.01 0 0 1-7.615-8.35c-.401.231-.844.485-1.314.75l-.583.325c-.475.266-1.042.581-1.942 1.101a4.204 4.204 0 0 0-2.03 3.197 9.35 9.35 0 0 0 1.489 5.735c2.236 3.874 5.923 4.884 8.258 3.873a48.83 48.83 0 0 0 5.115-2.686l1.863-1.089c.75-.439 1.571-.919 2.41-1.405zm27.586-24.334c-1.513-2.62-3.387-4.346-5.145-4.738a3.314 3.314 0 0 0-.73-.084 2.714 2.714 0 0 0-1.586.499c-2.584 1.798-2.81 5.152-.605 8.971a8.695 8.695 0 0 0 5.05 4.224 4.013 4.013 0 0 0 3.103-.297l.009-.005c2.097-1.237 2.057-4.841-.096-8.57z"/></svg>