<svg xmlns="http://www.w3.org/2000/svg" width="100" height="100" viewBox="0 0 100 100"><title>grabme</title><path d="M62,33.1a.9.9,0,0,1,0-1.3l.3-.2a.9.9,0,0,1,1,.2.9.9,0,0,1,.3.6.9.9,0,0,1-.3.6l-.6.3Zm4,1.6h.4a.9.9,0,0,0,.6-.3.9.9,0,0,0,.3-.6A.9.9,0,0,0,66,33l-.3.2a.9.9,0,0,0,0,1.3Zm-2.8,1.1a.9.9,0,0,0-.3.6.9.9,0,0,0,.3.6l.3.2h.3a.9.9,0,0,0,.6-.3.9.9,0,0,0,.3-.6.9.9,0,0,0-.3-.6l-.3-.2h-.7Zm3.6,1.5v.4a.9.9,0,0,0,.3.6l.3.2H68l.3-.2a.9.9,0,0,0,.3-.6v-.4l-.2-.3A.9.9,0,0,0,67,37ZM72,41.6h0c-1.5,1.5-4.4,4.2-5.8,5.8s-10,10-12.9,12.7L47.4,66l-1.5,1.5a51.2,51.2,0,0,1-4.4,4A7,7,0,0,1,37.1,73a10,10,0,0,1-7-3.2,11.1,11.1,0,0,1-3.4-6.2,6,6,0,0,1,1.6-5.1l1.6-1.6.5-.5L32.8,54l3-3,5.9-5.6,5-4.7L53,34.5l5.8-5.9h0A4.6,4.6,0,0,1,62.2,27c2.3-.1,5,1.2,7.5,3.8S74.5,39.1,72,41.6ZM60.1,29.8c-2,2.4-1.4,5.7,1.7,8.8a8.7,8.7,0,0,0,5.9,2.8h0a4,4,0,0,0,2.9-1.1h0c1.7-1.7.7-5.2-2.3-8.2s-4.3-3.2-6-3.2h-.2A2.8,2.8,0,0,0,60.1,29.8ZM46.6,43.4A10.2,10.2,0,0,0,53.9,49a13.8,13.8,0,0,0,11.8-3.6h0l2.1-2.1a10.5,10.5,0,0,1-7.2-3.3c-2.5-2.5-3.4-5-3.4-7l-2.9,2.9L48,42ZM34.1,55.3h-.1A12.1,12.1,0,0,0,42.6,61c3.8.7,7.4-.1,9.4-2.1h0l8.9-8.7a15.5,15.5,0,0,1-4.8.8l-2.6-.2a12,12,0,0,1-8.3-6.1L43,46.7l-5.9,5.6Zm14,7.4a14.5,14.5,0,0,1-2.9.3l-2.9-.3a14,14,0,0,1-9.5-6.1l-1.1,1.1-.5.5-1.6,1.6a4.2,4.2,0,0,0-1.1,3.6,9.4,9.4,0,0,0,2.9,5.2c3.2,3.2,7,3.2,9,1.6a48.9,48.9,0,0,0,4.2-3.9l1.5-1.5Z"/></svg>